/* XPM */
static char *result[] = {
/* columns rows colors chars-per-pixel */
"64 64 129 2 ",
"   c #525252",
".  c #5D5D5D",
"X  c #5E6548",
"o  c #636C47",
"O  c #646D48",
"+  c #636851",
"@  c #60625D",
"#  c #757F56",
"$  c #636363",
"%  c #676963",
"&  c #686963",
"*  c #6B6B6B",
"=  c #70726A",
"-  c #797D6E",
";  c #737373",
":  c #7C7C7C",
">  c #778B35",
",  c #788E32",
"<  c #72833A",
"1  c #7A9034",
"2  c #7C8E47",
"3  c #7F9048",
"4  c #7E8C50",
"5  c #7D836D",
"6  c #7E8272",
"7  c #87AA1D",
"8  c #8AAD1D",
"9  c #8EB31E",
"0  c #91B61E",
"q  c #94BA1F",
"w  c #829E2C",
"e  c #8BAC22",
"r  c #85A22B",
"t  c #8DAD29",
"y  c #8EB122",
"u  c #92B522",
"i  c #96BB21",
"p  c #99BE24",
"a  c #93B42C",
"s  c #96B92B",
"d  c #9ABE2A",
"f  c #8AA533",
"g  c #8DAA35",
"h  c #8FAA3B",
"j  c #91AF34",
"k  c #91AC3C",
"l  c #94B332",
"z  c #97B833",
"x  c #9ABB34",
"c  c #95B33A",
"v  c #99B63D",
"b  c #9CBB3B",
"n  c #9BC125",
"m  c #9EC329",
"M  c #A1C62B",
"N  c #A3C92C",
"B  c #AAD12E",
"V  c #A3C53A",
"C  c #ADD430",
"Z  c #82934B",
"A  c #8A9B53",
"S  c #8E9E5A",
"D  c #909F5F",
"F  c #8CA442",
"G  c #8FA941",
"H  c #92AB42",
"J  c #91A74D",
"K  c #94AD48",
"L  c #96B143",
"P  c #99B544",
"I  c #9DBA47",
"U  c #96B048",
"Y  c #99B14E",
"T  c #9FB94D",
"R  c #94AA54",
"E  c #99AE55",
"W  c #93A55C",
"Q  c #97AB5A",
"!  c #9BB255",
"~  c #9CB15C",
"^  c #A0BA4E",
"/  c #A1B65D",
"(  c #879265",
")  c #8D9C60",
"_  c #8C966D",
"`  c #8E996B",
"'  c #919F67",
"]  c #848A72",
"[  c #81827E",
"{  c #86887D",
"}  c #8C9377",
"|  c #8D937B",
" . c #919B74",
".. c #949C7C",
"X. c #93A362",
"o. c #9CAD66",
"O. c #99A66F",
"+. c #9CAC6B",
"@. c #9EB165",
"#. c #9FB06A",
"$. c #97A175",
"%. c #9DAA75",
"&. c #9BA57C",
"*. c #9FAA7C",
"=. c #A1B26C",
"-. c #A1AD7D",
";. c #A1B070",
":. c #848484",
">. c #8D8E87",
",. c #8C8C8C",
"<. c #8F9188",
"1. c #939785",
"2. c #949985",
"3. c #999F87",
"4. c #95978F",
"5. c #969A88",
"6. c #949494",
"7. c #989A92",
"8. c #9B9B9B",
"9. c #9BA384",
"0. c #9FA884",
"q. c #9EA48C",
"w. c #9FA490",
"e. c #9FA298",
"r. c #A0A884",
"t. c #A2A694",
"y. c #A3A894",
"u. c #A3A59B",
"i. c #A3A3A3",
/* pixels */
"9 9 0 q n m N N N N n q q q i q q n N N n q q q q q q q q q 0 8 8 9 q q 9 9 q q p m M p p p M N p i 0 0 7 7 0 0 0 q 0 8 7 9 q q ",
"9 0 0 q i n N N N N m i q q q i q p n N n q q q q q q q q q 9 8 8 0 q q 9 0 q q q M p p p p M N M q 0 8 7 8 8 0 q q 0 8 8 0 q q ",
"0 0 0 q i n m m N N m n p q i n n n n n i 9 9 9 q q i q 0 q 9 8 8 9 0 0 0 q q q p p n p p p p p i 0 0 0 0 0 0 q q q 0 9 9 0 q q ",
"q q 0 0 0 i i n m m m N n n i n N m n q 0 9 9 9 0 q q q q 9 8 8 8 8 9 q q q q q q q q n m p i u 0 0 0 0 q q q q q q q 0 9 0 q q ",
"q q 0 0 0 0 0 p n m M N n p q n N m n 0 9 7 8 9 0 0 q 0 0 0 9 9 8 9 9 0 0 q q q q q q n d p i 0 0 0 0 q q q q q q q q q 0 q q 0 ",
"0 0 0 q q 0 0 i p d m M n i q n N m q 9 9 8 8 9 q 0 0 0 0 0 0 q 0 9 9 0 9 q q q q q q n p p q 0 u 0 0 0 0 0 q q q q q q 0 0 0 0 ",
"9 0 0 q q 0 0 0 u i d m p 0 q n N n i 9 8 7 9 9 q 0 0 9 q q q q q 0 9 9 9 9 0 q q q q q q q q q q q q 0 0 u i q q q q q q 0 0 0 ",
"0 0 q q 0 0 9 0 0 i i p i 0 0 p m n u 9 9 8 9 0 0 9 9 9 0 q q q 0 0 0 0 q q 9 9 0 0 q q q q q q q q q p i i q q q q q p n i 0 0 ",
"q q q q 0 0 0 9 0 9 u 0 u 0 0 0 i i i 0 0 9 9 9 9 8 8 8 0 q q 0 0 0 q q q 0 0 8 8 8 0 0 q q 0 0 0 q p p m p p i p q p m M p i q ",
"n i p q q 0 0 0 0 0 9 9 9 0 0 q i p s s s u 0 y 9 9 8 9 0 q q 0 0 q q q q 0 9 7 8 0 0 q q 0 0 0 u q i d m d d d d i i m m p q q ",
"n n n q q 0 q q 0 0 0 9 u u 0 i q v #.;.+.! a 9 9 9 9 9 0 q u u q q q q 0 0 8 7 8 u 0 i q q q u q q i i p T =.;.+.E s i p p q q ",
"B N n p q q q q q q 0 u u i i i u ~ t.i.i.0.v y y y y u u i u u 0 0 q 0 9 e e 7 e u i i s i i i i i i i i ~ u.i.i.*.j u 0 q q q ",
"N N m n q q q n n p d U o.#.o.o.+.&.6.6.6.5.O.+.o.#.o.o.A 3 3 3 Z Z Z 2 2 2 2 2 Z W o.o.o.#.o.o.o.#.@.o.=.&.7.6.8.3.+.! a 0 q 0 ",
"m N N m m p q n m m d +.i.i.i.i.i.8.,.,.,.6.i.i.i.i.i.8.: * * * * & * * * * * * : 8.i.i.i.i.i.i.i.i.i.i.i.6.,.,.,.6.8.r.c 0 0 0 ",
"m m m N M m d T / E W ..8.8.8.,.: :.,.[ ; 6 6.6.:.:.6.6.; $ $ . . @ . . . . . $ * ,.8.8.8.8.8.8.8.8.8.8.8.6.,.,.,.,.6.$.k 0 0 9 ",
"n n m m M m b -.u.7.>.,.,.,.<.; . * :.: . * : :.$ @ : [ $                       $ :.,.,.,.,.,.,.,.,.,.,.,.,.,.,.,.,.,._ j 8 0 9 ",
"q q n m m m V ~ %.9.6.6.6.:.; ; ; ; ; ; ; ; ; ; ; ; ,.6.; * * * * * * * * * * * ; ,.6.8.6.6.6.6.6.6.6.6.6.6.8.6.7.6.6. .g 8 9 9 ",
"q q i n m m m m P *.i.i.8.: . : 8.: . ; 6.:.$ * ,.i.i.8.6.:.:.:.:.:.:.:.:.:.:.:.6.e.i.i.i.i.i.i.i.i.i.i.i.i.i.i.i.i.i.&.k 0 0 0 ",
"q i q i i i d L R $.8.8.i.:.; :.i.,.; :.8.6.: : 6.i.i.i.8.6.6.6.6.6.6.6.6.6.6.6.6.i.i.i.i.i.i.i.i.i.i.i.i.i.i.i.i.i.i.-.c 0 0 q ",
"q q 0 0 9 0 l D >.<.6.8.i.8.6.e.i.8.8.8.i.8.8.8.i.i.i.i.i.i.8.i.i.8.i.8.i.i.8.i.i.i.i.i.i.i.i.i.i.i.i.i.i.i.i.i.i.i.i.r.v p q i ",
"q q u 0 a c R ..,.:.: :.,.,.,.,.,.,.,.,.,.,.,.,.,.,.,.,.,.,.,.,.,.,.,.,.,.,.,.,.:.,.,.,.,.,.,.,.6.,.,.,.,.,.,.,.>.1.&.o.x p m n ",
"q q 0 0 g +.q.e.8.; $ $ $ $ $ $ $ $ $ $ $ $ $ $ $ $ $ $ $ $ $ $ $ $ $ $ $ $ $ $ $ $ $ $ $ $ $ $ $ $ $ $ $ $ $ $ $ # H x i m M N ",
"n n u 0 k &.8.i.6.: * $ $ * $ $ $ * $ $ $ $ $ $ $ $ $ $ $ $ @ @ . $ . $ $ $ $ $ $ $ * $ $ $ @ + O o o o o o o o o < e p p m M N ",
"m m n i h } 6.,.,.6.,.,.,.,.,.,.,.,.,.6.,.,.6.,.,.,.: : : : : : : : : : :.,.,.6.,.6.,.,.,.:.6 Z f f f f f f w w w t i n M M M M ",
"N N n p l ) } } | 7.e.8.6.6.6.6.6.8.8.i.i.i.i.i.i.8.2.} { [ { } | } } } 5.i.u.q.0.q.q.q.q..._ G p m m M N m p q q q n m N M M m ",
"N N n i u h F F J  .,.: * * * * * : ,.8.i.i.i.i.6.5.D F # % 4 G G G c h O.t.0.~ U G U U U L c s i p m m N m m m p q p m M m m p ",
"N B n n q q q q a ' ,.*           $ [ ,.6.8.i.e.5.` h e < X > y y i i q ! t.%.l 9 8 8 9 0 q q q i i p m M M M m n q p m m p i i ",
"m n n q q q 0 i l $.6.;           . $ * ; : 8.w.X.G t e w , < O 1 i q q ! t.%.l 9 8 7 9 q q q q 0 i i p n m M M n q i n d p i i ",
"n n i q q q y u c %.6.;                   * 6.0.L 9 9 0 0 y < X > 9 y y ! q.+.z 9 8 8 9 q q 0 0 q q i i i d m m n i i i i i q q ",
"q q q q q q a E O.5 ; @       . ; *       * 6.0.L 9 9 9 0 u r 1 r 9 G o.o.~ P s 0 9 8 9 q i 0 0 0 q 0 0 9 i d m p q q 0 u 0 q q ",
"0 0 0 0 0 0 l *.8.*           * :.; .     * ,.0.L y y y u u p u i y Q e.+.s 0 i 0 9 9 0 0 q 0 0 q q q q 0 i p n i q q 0 0 0 0 0 ",
"8 8 9 9 0 q z *.8.=           . * $       * :.4.' S W o.o.o.o.o.@.@.o.@.P p q q 0 9 9 0 q q q q q q q q q q i p i q q q q 0 0 0 ",
"8 9 9 0 0 u c *.6.*                       $ 6 ,.,.4.8.i.i.i.i.i.i.i.o.d i i q q q q 0 q q q i q q q q q q q q q q q q q q q 9 9 ",
"9 9 0 0 a G S ] : .                   $ ; 6 ) S S S X.O.o.+.o.o.#.#.T m i i q q q q 0 q q q q i q q q q q q q q q q q q q q q q ",
"0 q i u j ` :.%                       * 6.&.v y e e e e s s i i s m N m p q q q q q q q q q q q q 9 q q q q q q q 9 0 q q q q q ",
"q 0 a G A 5 * .                       ; 6.*.v 0 0 9 9 9 0 q q q i m N m n p n i q q i p n p i q q q 0 0 q 0 0 0 9 9 0 q i q p q ",
"0 0 c ` 6 $ .                         * 6.r.v q q q 0 0 q q q 0 u n N m N n n i q q n n m n n q q q q 0 9 9 8 8 9 9 0 q i p n M ",
"9 9 G } : .       @ $ .           . * - $.~ z q q q q q q q 0 0 u s m m N m n q q q i n N n n q q q q 9 0 8 8 7 9 9 q q i n m n ",
"9 9 h } : $     . ; : $           ; ,.$.L s p q q i 0 0 q q 0 0 0 i n n m m n q q n m n p i i q 0 9 q q q 9 8 8 9 q q q i p p n ",
"t h A ] ; .       * : $           ; 8.%.x q q q q 0 0 0 q q 0 0 0 0 q n m m i 0 q m m n q 0 q q q 9 9 q q 9 8 8 9 q i q q q q q ",
"j ` 5 % .           $             ; 8.%.x n i q p q q 0 q q q q 0 q 0 i n p u 0 i n n i 0 0 0 q 0 0 0 0 q 9 9 9 9 q 0 q q q q q ",
"K 1.:.= $ $ .                   . - &.@.x M n n q q q q q q q q 0 0 0 u 0 q u q i n n i q 0 0 0 q 0 q 0 0 0 0 0 0 9 0 0 9 q q q ",
"U q.6.6.:.:.; $               $ : ( U v n N N p q q q q q q q q q 0 0 9 9 0 q q q q q q q q q 0 0 0 q 0 9 0 q q q 9 9 9 9 q q q ",
"P *.u.i.i.6.,.* $ $ .         * :.) a i n N N n n n q q q q n n n n 0 0 0 q q q q 0 0 q q q q q 9 0 9 9 9 0 q q q 9 0 9 9 0 q q ",
"s P =.y.i.8.8.,.:.:.; @       * :.D s i n m M N M m p q q q p M m n q q q q i i q 0 0 0 q q q q 9 8 8 8 0 0 q q q q 9 8 8 0 q q ",
"i q I -.t.y.y.t.w.5.| = . . . ; ,.D s i i n m m M p q q p q n m n n q q q q q q q 0 0 q q q q q 0 9 9 9 q q q q q q q 9 8 9 q q ",
"q p x ^ ! T ! ! ! Y J _ :.:.:.<.8.+.s q i n m m M d q q n M n p q i q q 0 0 0 i q 0 q q i q q q q 0 0 q q q q q q q q 0 0 0 9 0 ",
"q q n m m p q n N m d #.u.u.u.u.u.+.s q q u i m m i 0 q n N n p 0 0 q q 0 0 0 q q n q q q i q q q q q q q q q q q q q q q 0 0 9 ",
"q i p n i q q q n q p v E E E E U c u 0 q q p p p i i i n n q q 0 q q q q q q i q n n q q q 0 0 q q q q q p p q p q i i q q q q ",
"q i i q q 0 0 0 0 q q q i q 0 u 8 8 8 0 q q q p i q q q q q q q q q q q q q q q n n N n q q 0 0 0 q q q q p M M n q q i q q q q ",
"n i p q q 0 0 q 0 0 0 q q q u 0 8 9 0 q 0 q q q q q q q q q q 0 q q q q q q q q p n m m n i q q i q q i p m M M n q q i q q q q ",
"N N n q 0 0 q q q q 0 0 q q q 0 0 0 q q 0 0 0 q q q q q 0 0 0 9 9 9 0 q q q q q p p n n n m n n n q q n m m M M n q q q q q 0 0 ",
"C B N q 0 q q q q q 0 0 0 q q q q p q q 0 0 q q q q q q q 0 8 8 8 8 9 q q q q q q q q n M M N N n i p n B M M m q q q q q 0 9 9 ",
"N N n q 0 q q q q 0 0 0 i p p p q q q q q q q q q q q q 0 0 9 9 9 9 q 0 q q q q q 0 q p n n M N n p n n N n d i q q q q q q q 0 ",
"q q q q q q q q 0 0 0 q p n M p q q q q q q q q q q q q 0 9 0 0 q q 0 q q q 0 0 0 9 0 q i n n N n i i n N m i 0 q 0 0 q q q q q ",
"q q p q q q p q 0 0 0 q n M N n p q q q q q q i n q p q 0 0 0 0 q q q q q q 0 0 9 9 9 0 i i n n n i i n n i 0 9 0 0 0 q q q q q ",
"8 9 0 q q q M q q 0 0 0 i M M M m n q q q q q n n n q q q q q q q q q q q q 0 0 0 9 8 9 q q q n i p q p i 0 0 0 0 0 q q q q 0 0 ",
"8 8 0 q M M M M q q 0 0 u m M M N m p q i q p M N n q q q q q q q q q q q 0 q q 0 8 8 9 q q q q q q q 0 0 9 9 9 0 q q q q q 0 0 ",
"0 9 q p q M M p p q 0 0 u p p M N m p p n i n n n p q q q q i p p i q q 0 0 q q 0 0 0 q q q q q q q 0 0 0 9 9 9 0 q q q q q q q ",
"d i p M M n p i q q 0 0 u i p d m m p q n M n p q q q q q q p M n n q q q q q q q q q q q q q q 0 0 0 0 0 0 8 8 0 q q q q p m M ",
"M M M N M i i i 0 0 0 9 0 q p p m p i i n M M q 0 9 9 0 0 q n n N n q q q q i q q q q q q q p q q 0 0 q q 0 8 8 9 q q q p n N N ",
"i d d M M i 0 0 0 0 0 0 0 q q p p p i 0 q n n q 0 9 9 9 q q p n n n n n n n n i q q q n n n n q q 0 0 q q 9 8 8 9 0 q q q n n n ",
"q i p M p i 0 0 0 0 0 9 0 q q q q q 0 0 q q q q 0 9 8 8 0 q p q q n n N N N n q q q q n N M n q q q q q q 0 8 8 8 9 q q q q q q ",
"q i p M d i 8 9 9 9 0 0 0 q q q q q 0 0 0 q q q q 9 8 8 0 q q q q m M M N N n q q q q n N M n q q q q q q 9 8 8 8 0 q q i q q q "
};
