/* XPM */
static char *_4a3df4169a048e8a532efd62e78a15cwRLR2OMnI2mWiI59[] = {
/* columns rows colors chars-per-pixel */
"64 64 181 2 ",
"   c #191406",
".  c #1D1807",
"X  c #1D1708",
"o  c #1E1908",
"O  c #231D0A",
"+  c #27200C",
"@  c #2B240D",
"#  c #30270D",
"$  c #342B0D",
"%  c #3C320E",
"&  c #2E2710",
"*  c #2F2810",
"=  c #342C12",
"-  c #382F11",
";  c #352F1C",
":  c #3C3212",
">  c #37301B",
",  c #3C341B",
"<  c #3B3320",
"1  c #3F3927",
"2  c #43370F",
"3  c #45390F",
"4  c #483B0F",
"5  c #413611",
"6  c #453912",
"7  c #4B3E11",
"8  c #403718",
"9  c #443A1B",
"0  c #493F1B",
"q  c #453D23",
"w  c #493E22",
"e  c #433D2C",
"r  c #4E4012",
"t  c #4C411C",
"y  c #534413",
"u  c #574815",
"i  c #5B4B16",
"p  c #51441A",
"a  c #574818",
"s  c #5D4D19",
"d  c #5F501C",
"f  c #604F18",
"g  c #64531A",
"h  c #69571D",
"j  c #6C5A1E",
"k  c #4D4324",
"l  c #46402D",
"z  c #4B432C",
"x  c #4B4A2B",
"c  c #504626",
"v  c #544A26",
"b  c #594D23",
"n  c #544A2B",
"m  c #5A4E2B",
"M  c #4C512F",
"N  c #525324",
"B  c #595725",
"V  c #5D522E",
"C  c #535A28",
"Z  c #454134",
"A  c #4A4533",
"S  c #4D4932",
"D  c #47413A",
"F  c #4A443A",
"G  c #4E4939",
"H  c #534A33",
"J  c #594F34",
"K  c #514A3A",
"L  c #5C5232",
"P  c #595B35",
"I  c #5C563B",
"U  c #555B38",
"Y  c #635423",
"T  c #6C5B22",
"R  c #655A2B",
"E  c #6A5B29",
"W  c #715E21",
"Q  c #705F2C",
"!  c #665834",
"~  c #65593C",
"^  c #586027",
"/  c #586028",
"(  c #5E692B",
")  c #5B6333",
"_  c #606723",
"`  c #656D26",
"'  c #636D2C",
"]  c #756123",
"[  c #7A6626",
"{  c #7D6827",
"}  c #75622A",
"|  c #7A6629",
" . c #7E6929",
".. c #677926",
"X. c #687729",
"o. c #6C7B2B",
"O. c #616533",
"+. c #6B603F",
"@. c #746332",
"#. c #7E6B32",
"$. c #73653D",
"%. c #79693D",
"&. c #647131",
"*. c #6C7B33",
"=. c #655941",
"-. c #695D43",
";. c #836D2B",
":. c #87702D",
">. c #89722E",
",. c #826E33",
"<. c #867133",
"1. c #8C7532",
"2. c #8F7936",
"3. c #84723A",
"4. c #8B763A",
"5. c #8D793C",
"6. c #927A36",
"7. c #947D3B",
"8. c #867541",
"9. c #83744B",
"0. c #87784C",
"q. c #8F7D4E",
"w. c #937E42",
"e. c #728626",
"r. c #758B25",
"t. c #798F26",
"y. c #72832D",
"u. c #768A2A",
"i. c #779024",
"p. c #799224",
"a. c #7E9B25",
"s. c #7A9528",
"d. c #87AA1D",
"f. c #8AAD1D",
"g. c #8EB31E",
"h. c #91B61E",
"j. c #94BA1F",
"k. c #829E23",
"l. c #879E2A",
"z. c #97803C",
"x. c #99813D",
"c. c #85A324",
"v. c #88A622",
"b. c #87AA20",
"n. c #8AAA22",
"m. c #89A62A",
"M. c #8EAF28",
"N. c #8FB221",
"B. c #92B621",
"V. c #96BC21",
"C. c #99BF24",
"Z. c #97BA2A",
"A. c #9ABE28",
"S. c #9AC023",
"D. c #9AC025",
"F. c #9BC125",
"G. c #9BC026",
"H. c #9CC125",
"J. c #9DC226",
"K. c #9DC229",
"L. c #9FC428",
"P. c #A0C629",
"I. c #A1C72A",
"U. c #A1C62C",
"Y. c #A3C92B",
"T. c #A3C92C",
"R. c #A4CA2D",
"E. c #AAD12E",
"W. c #ADD430",
"Q. c #968043",
"!. c #9C8543",
"~. c #9F8846",
"^. c #93824E",
"/. c #9D8748",
"(. c #9F894C",
"). c #A08947",
"_. c #A28C4B",
"`. c #A28E53",
"'. c #A58F51",
"]. c #A69153",
"[. c #A99455",
/* pixels */
"g.g.h.j.G.J.R.R.R.I.G.j.j.V.j.V.j.J.I.Y.S.j.j.j.j.j.j.j.j.j.h.f.f.h.j.j.h.g.h.j.S.G.L.K.V.C.L.R.K.V.h.g.d.f.g.g.j.h.g.g.f.g.j.j.",
"g.h.h.j.V.J.R.R.R.I.G.V.j.j.V.V.j.C.I.I.J.j.j.j.j.j.j.j.j.j.g.f.f.g.j.h.h.h.j.j.S.G.K.C.V.C.L.U.G.V.h.g.f.g.g.g.h.j.g.f.f.g.j.j.",
"h.h.h.j.V.C.L.L.I.U.L.G.S.V.V.S.C.J.I.C.V.h.h.h.h.j.j.j.j.h.g.f.f.g.h.h.j.h.j.j.V.S.G.G.G.G.C.C.V.h.h.g.g.g.h.j.j.j.h.g.g.g.j.j.",
"j.j.h.h.h.V.V.G.L.L.R.I.J.C.V.J.I.L.C.j.h.f.f.g.h.j.j.j.h.h.f.d.f.f.h.h.j.j.j.j.V.j.V.S.G.G.V.B.V.h.h.h.j.j.j.j.j.j.j.j.g.j.j.j.",
"j.h.j.h.h.h.V.V.G.K.U.T.J.j.V.J.Y.K.C.h.h.d.f.f.h.h.h.h.h.h.g.g.f.f.f.h.h.j.j.j.j.j.S.S.G.C.V.h.g.g.h.h.V.j.j.j.V.j.j.h.g.j.j.j.",
"h.h.h.h.j.h.g.V.C.G.K.I.J.j.j.J.Y.I.V.h.f.d.f.h.h.j.h.h.h.j.h.h.h.h.h.h.h.h.j.j.j.j.j.V.C.V.V.j.V.h.j.h.h.h.j.j.j.j.j.j.h.h.g.j.",
"h.h.h.j.h.h.h.h.V.V.G.L.C.V.h.G.T.K.B.g.f.f.f.h.j.h.h.h.j.j.j.j.j.h.h.h.g.g.h.j.j.j.j.j.V.j.j.j.j.j.j.h.h.B.h.j.V.j.j.j.h.j.g.g.",
"h.h.j.j.j.h.g.h.g.V.V.Z.B.h.h.C.J.C.V.h.h.f.f.h.h.h.g.g.h.j.j.j.h.h.h.h.h.h.h.h.h.h.j.j.V.h.j.h.h.j.V.V.C.V.V.j.V.j.V.C.J.V.g.j.",
"j.j.j.V.j.h.g.h.g.N.B.B.h.h.N.V.C.j.V.j.h.g.g.g.g.g.d.b.n.v.n.v.d.v.n.n.n.n.d.f.f.h.h.h.j.j.h.h.h.j.V.S.G.S.C.j.j.V.S.J.L.S.j.j.",
"V.S.V.V.j.h.h.h.h.h.g.g.g.h.h.h.j.j.j.j.j.h.B.) D F G n R $.9.0.0.9.%.@.R b c e e ^ t.B.j.j.h.h.h.j.V.G.K.G.S.j.V.j.S.J.L.G.S.j.",
"J.J.S.V.j.h.j.h.h.h.h.h.h.h.h.j.j.j.j.V.k.U G K J J m Y Y 4./.'.'.(.w.,.[ j f b n m H G Z o.h.j.j.j.j.S.G.S.J.J.V.j.j.j.V.S.j.j.",
"E.Y.J.V.V.j.V.j.j.j.h.g.h.j.j.j.j.j.s.F F ! @.@.@.Q E h h ;.7._.]._.5.[ j W Q } #.3.3.0.+.l l k.j.j.j.j.j.G.I.I.V.h.g.g.g.h.j.j.",
"L.Y.L.J.S.V.j.j.S.S.V.h.j.j.j.j.u.A K K H @.4.1.:.;.W h h ;.>._.'.(.3.T g W  .1.7.!._.'.3.v c c J &.d.V.j.S.J.S.V.h.h.h.j.j.j.j.",
"L.I.L.L.J.C.j.J.L.J.S.h.j.j.h.M e L @.E b #.7.2.:.[ W h h ;.2.).`.w. .f f j ;.6.)._._.).<.g Y Y V G F y.j.j.S.C.V.j.j.j.j.g.g.g.",
"J.L.R.R.I.J.C.J.L.L.G.j.V.' S z c E :.W h ,.!.6.;.;.] h g [ 1.~./.1.[ u u j :.x.).[.'.).<.h T [ @.+.~ I y.j.V.j.j.j.h.h.h.g.g.g.",
"J.G.L.L.I.J.J.J.J.G.V.V.x m } E d W :.W h ,.Q.6.:.;.;.g i j :.7.w.,.j u i j ;.x._.[.[.'.4.h W ;.5.^.q.3.~ &.j.j.h.h.j.g.g.g.g.g.",
"V.V.C.K.L.L.T.K.C.j.h.e v E [ j f W ;.W h ;.7.1.>.>.;.f y h ] >.2.[ g y u j ;.6.)._.].[.4.h [ 6.~.[.~.2.%.=.U N.B.h.g.f.d.f.g.g.",
"V.V.V.C.K.L.K.K.j.j.x v Y T h f y h ] j h [ 1.1.:.:.;.f u h ;.:.;.W f y u W { >.7.)._.].4.h  .7._.].Q. .8.q.-.F h.h.g.g.g.g.h.h.",
"j.j.B.V.V.V.G.j.C.( c b h f i i 7 f j h h ] ;.;.:.;.;.f y g ] ;. .h i y u j ] ;.2.6./.].4.f | x._._.4.{ 5.].9.=.y.j.h.j.h.h.h.j.",
"j.j.j.g.g.j.B.V.s.A s u u y y 4 7 i h g g j [ ;.;.;.j f y f h ] W h f y u g j W ;.:.w.'.3.a } x.~.~.<.{ Q.].`.^.~ t.j.j.j.C.j.j.",
"j.V.j.g.g.g.g.c.Z c d i i r 7 r 7 i f h h j W [ ;.] h i r u f h h s u i i j W W W W ,.Q.,.u | x.~.~.<.] 5.[.[.].%.m n.j.S.C.J.J.",
"j.h.g.h.g.f.f.A 0 u g f s i r r r i f j W j h W ] j g y r r u f g y u i h { [ h f i T >.[ g  .7._._.<.T 5.[.[.[.5.| R n.j.J.Y.Y.",
"S.S.j.j.g.f.i.l y r i i f i r 4 7 y i j W h f h j W j f y r r u i 7 u h { ;.{ h g g h W h i { 6.~._.#.g 4.[.[._.6.{ b / J.L.I.I.",
"J.L.G.V.N.f.( l 4 r r i f i r r r r r h W f r i h ] ;.j f y r r 4 y i ] >.;.{ h j  .W i y 7 h >.6.x.| a %.[._.x.<.} b e Z.I.I.I.",
"R.R.J.V.B.i.z w 6 6 7 u f i 4 4 3 r i h ] g u f h [ ;.] g u r r y u f W >.:.{ h ] 1.[ s y 7 h ;.6.6.W s <.]._.x.:.T Y v &.I.L.L.",
"R.R.J.S.V.e 0 6 : : 3 u s i r 3 % 4 f j ] j f f h [ :.[ j i r 4 y i h W { :.{ h [ 7.;.h u y h >.>.,.[ h 4.[._.7.:.] ] R l L.K.C.",
"R.Y.J.j.n.e 8 : - - 5 7 i u 7 5 - r f j ] j g h j { :.[ j i y y i g j j W { { W ;.7.1.j g u j >.;.;.T f ,._./.6.{ T [ } n c.C.V.",
"L.L.J.V.o.e , ; = = : 5 4 y 4 5 - r f j ] j g j ] ;.;.;.j i y i h W W h j W { :.2.x.2.[ j g W ;.;.W s i [ x.6.;.] h [ { m u.V.V.",
"G.S.S.j.C 9 - = = - : 5 5 6 3 5 - 6 a h ] h g W { ;.;.;.j f u u f j ] W W W W :.6.6.>.{ h i W 6.>.{ h y [ 2.6.2.[ h | ;.E B j.j.",
"j.j.h.V.t 6 - = ; : 7 5 : 5 7 5 - : r g ] h g j ] ;.;.;.W g i y i j { ;.{ h W ;.>.>.;.W h y Q x.6.;.h y T 1.6.7.[ h [ ;.| R v.j.",
"j.g.j.d., : - = $ - : 6 7 6 2 - - : 5 u j f i h ] ;.[ [ W h f y y g W { ] f h ;.>.6.>.{ g 7 W 7.7.7.T y [ 6.x.7.| h ;.1.;.E ' j.",
"f.f.f.i.> - = = = - - 6 i t - - = = , r f u u g ] ] ] ] W h f y y f h W h u f ;.6.7.1.W g y } x.x.x.W u | x.!.x.| h 1.6.;.E z N.",
"f.f.d.e.> - = = = : 5 6 7 7 5 : = : : r r y u d g j ] W j g i r 4 i g j g i j ;.1.6.;.W g i [ z.z.2.T y [ 6.7.x.{ W ;.6.;.T Z a.",
"N.g.g.e.> - = = = : 4 5 , : 7 : = : r : : t i r y g ] g g d i : 2 i g g g f j ;.>.>.{ g f f { x.6.>.h y j >.7.x.;.[ ;.;.[ E l a.",
"j.j.V...> = = = - - : 5 % 5 : : = : : r t r r r y g ] j d i y 4 2 y i f f i g [ ;.>.{ g f i [ 7.7.:.h y h ;.6.x.:.[ 1.6.;.E A k.",
"j.j.V...> = = = & = : : 4 5 - - = = : t a 6 : 6 y g ] g i y r r 4 7 y i i 7 i W  .;.] h i r W x.2.:.h y g [ >.x.;. .6.7.;.E G M.",
"g.j.j.i., : - # + # 5 5 : 5 5 : = : 6 r 0 % 3 : 3 d h i y r r : 2 4 y u y 7 i W ] { ] g a r j 1.:.{ g y g ] ;.1.;.[ 6.7.;.E G K.",
"g.g.j.a.t 6 % @ o @ 3 5 : 5 4 5 = : r : : 3 r % % r i y r r : % % 2 7 4 4 y i j W W j g u r h  .{ W i r g ] ;.;.[ [ 7.7.;.E U K.",
"g.g.g.g.p r : & @ # : 5 5 5 : - * : : : : : : 2 6 6 6 r r : - @ @ 2 4 5 2 4 i f g s i y r % s [ j i u r i j ] ;.[ [ 2.7.;.E O.C.",
"g.g.j.j.b y , = & = - : 6 : - = * = : : r : : : 6 : - 5 6 : & o + % 2 % % 4 y f a r 7 r : - t j d r r y i g j ] [ [ 2.7.| E *.V.",
"g.j.j.j.C 9 , @ + @ * - : - = @ + @ = : : : = : : = = : : = & o O $ : - - : 5 y 7 : : : - = 0 a u 7 y y u u g [ ] [ ;.4.! H n.j.",
"j.j.j.j.e., , # o o = = - = # +   + * * = * * * = * = = = # *   . @ # = = & - 6 : $ = - = = : 4 4 7 i s y y g W ] ] ;.| L D j.j.",
"j.j.j.S.b.1 5 $ o + * % : $ + .   . O @ * @ + & * @ + & * + o o X X + & & O + - $ O @ = = = - : 4 7 6 6 6 y s h W ] [ } K o.j.j.",
"j.j.S.S.G.C t % + + @ - 4 - o .   . o + * + o + @ + o + & +   o     O @ & O O = + O O @ = = = & % 6 5 = 5 6 u f j ] ] E P j.j.j.",
"V.V.G.L.J.a.w , = + o @ : = @ O   o @ + O + @ O + + @ + o @ + X       X O @ O O + @ + O @ = & o # - - = - : 7 a h W E L f.g.j.j.",
"V.V.L.L.L.G.e 1 : # . + * * * O   O & + o @ @ + o @ @ o X + @ X         o @ @ o O * O O + & + o O # * - = - 5 7 g T L r.N.h.j.j.",
"j.V.G.L.L.G.a.1 , $ X O * & O X   o O + & O O + @ + X X X o             X X O @ + O O + + O + @ O X & = = = - 5 u Y H k.h.h.h.h.",
"j.j.G.K.G.V.j.N t : @ @ @ @ o X   o o + @ O   + @ o                         o & + X O & + o + & O O & = * * = : t b r.j.j.h.h.g.",
"j.S.V.G.S.j.j.n.w 9 5 $ O O @ O . O @ + o X   X X                               X     o + @ O O O * = = @ O $ 6 c t.j.j.j.j.j.j.",
"j.j.j.j.j.h.h.h.k.k 0 : @ @ @ O   O @ O                                                 O + O o O * * = @ @ % 0 o.j.j.j.j.j.j.j.",
"G.S.S.j.j.h.h.h.g.g.S w 5 $ O o   . o                                                     O       O @ = : 6 9 v C.j.j.j.j.j.j.j.",
"Y.Y.S.j.h.h.h.j.h.h.g.l 0 : @ O o .                                                             O O * - 6 0 ` K.C.j.j.j.j.j.j.j.",
"E.E.L.j.h.j.j.j.j.V.h.t.e q 4 - @ +                                                             O & - 7 0 B U.A.C.j.j.j.j.j.g.g.",
"Y.Y.S.j.h.j.j.j.j.h.h.h.u.A w q , = @ + O .                                             X O O @ $ > 6 0 l.I.A.C.V.j.j.j.j.h.h.h.",
"S.V.V.j.j.j.j.j.h.h.h.j.C.m.P A S k 2 % $ O                                             O = % 3 9 q _ Z.I.A.B.B.h.h.h.j.j.j.j.j.",
"j.j.j.V.j.S.j.j.h.h.j.j.C.I.U.*.F k t 9 ; $ @ + o X                             o O O @ - , 9 k q t.V.C.A.Z.B.h.h.N.h.j.j.j.j.j.",
"f.h.h.j.j.C.I.C.B.h.h.h.V.I.I.I.m.S q w w 9 5 % @ O                             O & = 6 0 H A ' B.V.V.V.j.h.g.g.h.h.j.j.j.j.h.h.",
"d.d.h.B.G.J.Y.J.C.j.h.g.V.A.U.I.R.K.u.M 1 q q , > = @ # # # # @ @ O @ @ $ @ @ @ ; , q w z ! h.V.V.j.j.h.h.g.g.h.h.j.j.j.j.j.h.h.",
"B.B.j.S.F.J.I.C.C.j.h.h.V.C.A.L.U.K.C.V.C.i.M 1 e q 0 8 3 3 6 4 6 4 4 3 6 6 t x z H X.o.c.j.j.j.j.j.h.h.h.N.h.h.h.j.j.j.j.j.V.V.",
"Z.C.C.P.P.F.C.V.j.j.h.g.B.V.C.A.I.J.C.V.G.L.G.Z.n.e.C N t 9 q q 9 w w k k k z ' d.h.h.j.h.j.j.j.h.h.h.h.j.h.f.f.h.j.j.j.V.C.K.K.",
"K.K.U.R.L.C.V.j.j.h.h.h.B.V.V.C.K.G.V.V.G.I.J.V.h.g.g.h.j.g.V.K.I.C.V.B.C.V.V.j.S.j.j.S.j.j.j.j.j.h.h.j.j.h.f.d.h.j.j.j.C.I.L.I.",
"C.C.K.U.K.C.h.h.h.h.h.h.h.B.V.C.C.V.V.h.V.J.C.V.h.g.f.g.h.j.C.C.J.J.A.C.C.J.C.j.j.j.j.S.P.I.j.j.h.B.j.j.h.h.f.f.g.h.j.j.j.C.S.I.",
"V.V.C.K.A.V.h.h.h.f.h.f.j.j.j.j.C.j.h.h.h.V.V.j.V.g.f.f.h.j.j.V.C.C.K.I.I.I.J.j.j.j.j.S.Y.P.C.j.j.j.j.j.j.h.f.d.f.g.j.j.j.j.j.j.",
"V.C.C.K.A.B.N.f.h.h.g.h.h.j.j.j.j.h.h.h.h.j.j.j.V.g.f.f.h.j.j.V.V.K.I.I.R.R.J.j.j.j.j.P.P.P.K.j.j.j.j.j.j.h.f.f.f.g.j.j.j.j.j.j."
};
