/* XPM */
static char *_19f76557262435edd5853a525bc3640VALcwVE4M5ULD096[] = {
/* columns rows colors chars-per-pixel */
"64 64 62 1 ",
"  c #87AA1C",
". c #87AB1C",
"X c #88AB1C",
"o c #88AC1C",
"O c #89AD1C",
"+ c #8AAD1D",
"@ c #8CAF1D",
"# c #8CB01D",
"$ c #8DB21D",
"% c #8FB31E",
"& c #8FB41E",
"* c #90B41E",
"= c #91B71E",
"- c #92B61F",
"; c #93B81E",
": c #94BA1F",
"> c #95BA1F",
", c #95BB1F",
"< c #95BC1F",
"1 c #8FB322",
"2 c #91B520",
"3 c #92B720",
"4 c #93B720",
"5 c #93B820",
"6 c #95B921",
"7 c #94BA20",
"8 c #95BB20",
"9 c #95B923",
"0 c #95BB22",
"q c #96BC20",
"w c #97BD23",
"e c #97BB25",
"r c #98BD22",
"t c #98BF22",
"y c #9ABF23",
"u c #98BC25",
"i c #99BF25",
"p c #9ABF26",
"a c #99BD28",
"s c #9BBF28",
"d c #99C022",
"f c #9AC023",
"g c #9BC024",
"h c #9CC225",
"j c #9CC227",
"k c #9DC327",
"l c #9BC029",
"z c #9CC228",
"x c #9EC32B",
"c c #9FC52A",
"v c #9FC52B",
"b c #A0C629",
"n c #A0C52A",
"m c #A0C52C",
"M c #A1C62C",
"N c #A3CA29",
"B c #A2C82B",
"V c #A3C92C",
"C c #A3C82D",
"Z c #A4CA2D",
"A c #AAD12E",
"S c #ADD430",
/* pixels */
"%&*<qcZZZcj7<<><<jbmj<><><<><<&++&q;&*5<elce0fcVld5#.+#&;q&++&;<",
"&**>dcVVZcfq<>>q<fbbj<>>;<><;;&++&;;&&;<flcfddccfq&& %&&;<&#+&;<",
";;;;5fkcBcckqdqffzcf>**%;5>;;;+++&;;;55<dffieflfr*&*&&;55q&&#&5<",
"5;5*5qqzcMcBcfqjVzfq*+%%&;>>;%%+o#&&;;><5qefxl54***7;5;;<;;&&;><",
";5;*;55qzxMMfiqzZkd*%++&&;;;&&&++&**5;5<<>qflfq****;7>q<<>>*&5;5",
"&;;5*;55qfxMf57lBmq*+ +&;5;%5;;;&&&*&;;<><<qef5;>>7&*;;><>>>;;&;",
"&&*;7*&&7qize45icx;%# +&5;&%;7<<>***&&;5q<>>0<<<><>545;<<<<<75&&",
";;;q;;&&47eee44rzf5&%#&&;&%%;7;5;;*;*;*&*&;<<;5;>;7qe5q5<>>jfq;*",
"<5><;*%%%44441&;qqq;*&&&&+++*<>**5;q>;&++%&;;5;&67<gjir<><qxBfq7",
"qf><7;&**%%%%%&5<>55q***%%++*<;&*;q;<*% +%*;<5;&;7ryzgi<q;fxlf<7",
"ckfq>;>;7***&;>>><;<>;&*%#%%;<>>5;<;;&# %&;;>;5;6*7riycfq&57r<><",
"ZBjq<q<<7;;*&;>><<<<<>5*%&&&;><7<<<5%*O +*<q<<<<<<7<>jBmf1*&%>>>",
"VVxff<<<fq5;7;q;;50<5;5;&*>*;qqrfq<>**%%%&57<>;5>><><ffjq;>***7;",
"cMVmkf<jmcf;><;5&;;<;*&;;7;>><fcmf<<<>;;;&*;q;;&;7><qqfqq7;*7;**",
"lxcVcffjckf;q;5;&;;;5;&5;>q<<>fmcj<><><>;;&5;5;&;;<>5;><777>***&",
"ffccBkkkkffq;5;;5;qq5;;;;5;<<q<ffjkjf>><;;5;q;*&;q>*;;>>7*&&&%%&",
"5qfxxcZcf<q<;&&;5<7>>>;*1;;q<<>q>bZjt><<<5><q5*&;;5;&&>5**++++%&",
"qqeflxcfqq;55*;5<qiqqq;547i<;>>>fcmzt<tffq;q;;;&;5&&+%;;;;&&#&*&",
"qq555dfdq;;*;5>;<<liiqq;5fzfq*5>qfmzt<fmf5**&*555&&# %&;*;5;*>;;",
"5q;&&&;5<5;&;;><<fjcfqqqqfVxe**7ffcfr<kmc0***555;&%#++&*5<<<><<f",
"qq*&*&&&5>;55;<<7qjfjgg<5fcxe&;;7fiq55rjf<;4&0ffq5&&&&&*><<<<fgk",
"<;5&&+X%;<q;<<<7q<>qjmju&exs7&&5q7r7;*5q505;5dfxfq>;;;*&*<<<qkmV",
"qfq5*+ %*>;<<<>;7*>>rmy75esf75;;>>74&*;>>7<;qdfczeqff<5*>q<<fcBV",
"mzf>&+ X&;5><>>>*7>r<iiq055d545**>q*&&5q;;&555qdisxmcf75;>fkmccm",
"ZZkd;#o##&;qq77**&;qq<<<<q>>7;5&*>>;*&;55&&;;q<5fcmmVmf<q<fmVmcz",
"ZBf<q&&&&5qfrr7>>;;<5;;5<;5;;5;;*>>>5;;;&##&;<<<5qcxbmjiq<ixMcjj",
"ZVcq;;q;5qzzz7q7q;q;5&&5>>&&**;5><<<>5;&%+o&5<<<5fizmmMcf<fzMiq7",
"Bcf<5q;;qqfxyjq7<<<q;&;;;*&&&&;;>>*>;;5&#+o#;q;5;<>fjmMMj>qzsf77",
"ffqq>>&55qqffxfz<>><;;5;**%&&;;q;&#%;7;5&#o%;;;;5;50eizxf77q7557",
"q7<7;%&;5q><fcVfq<<7><;;&&&%;q<>;&.%;q<<&#o&q5&&>>;&%eszjq5*4477",
"***;;**;q;q>fMcfqqffqq75;%%%&5;7;&&&;><<;##&;q5;;>q>47iy><;5;;*7",
"++&&;5>qqq<<fzcfqdccfqq>5&X+%&5;5;;;5<><;&&=<5;>5<>>;r<r77>6;;**",
"++#&&;5;><<qqzxqq<cxfq;0;%+.&&;qqfdqq7><;&&;;q<>>q;q><>q;5qq;5&;",
"&&;;5;;5>><;qfq05<fff<<5&%.+&;5;<fcfd;<>>>>><<><*>5;<><;;;;;q;5;",
"<;q0;=&;><<<00;;&&;qq;;;%# +&;<<fxVcf>><<>>>>7<>;&&;q<q;;&&>qq;q",
";;;;5&#&5;5;;0<;;;;;;0;5&%%&;7q;<fccffd>><>dffqq5;&5;;&&&&&5qqqf",
"=&;0;#o&;;;&;5<;55;=;q;;;;;;;q;*5fMBccf<<>drmff;>;;;&&+##&;5qdlx",
"&&;;=#o#;5&&;5;0;;;&5;q<<>;5<<5&4exxVmj<<;qcccfq<75*%%+o#&;;qdlx",
"&&;;;#o#;;&+#&5;<;;5;q<>q;5;5<;*15fxxxf>5clffqqq;;;;*&++&&55qqff",
"&&;0&#o%;*&++&&5<0q;><><<5&&;<5&&55fxxq%5cMl55;q5&&5;&++&00qq5qq",
"&;5<;&+&5;&%+&&;;;<<qfqd<;&*><5;&55qqze1qfxi5&5;5&;*;%%&&;;5;;q<",
";;;q;&#&;;;;;;;;&;0qfczq7q7>;<;>q&&55544qqfq;5;&;;5;;%%;;&&&;5><",
";<<q55&;><><q<;;&&5qfBcfqq<5q<qq77&*&&;>q55q<;;&&;;&&&>;;&&&&;;q",
"0<fffq5;;>>*;50;5;qqcBccffqq<>qjz77*;;5>;;5;q5;;&&%%&;7;;;&#%&;<",
"qqfMcd;557&*;7<<>>5qfxMMxjqq<>rcmr>>;qq<5;&5;q;;&+%+&*7>7;&++&;q",
"qqlMcfqqff>*;*<5<<<qifmxVfe<qrjccf<55;;<;;;;0;<;&%+%&;><><;%+&5;",
"5qfxcf<fcff;*;;;><>qqffxxs46jcfi;>>;;;;<7;5<<<><;;&;;5><<<;;*&&;",
"qqfzzqqfccf>7*&;5;><05qcxq4;jBz5&>>>**5>;qqq<<<>qq;<<>qq><<<>;&&",
"7qqfq775iiqq7*;&&&&;><qffe50fc<55;q;5;;<<gj<q7;5;q;0>fff<<<>>>*;",
"q>qq7;44447>>>;&+#&*5;qq5q;0qf<q;><<;<5>gjBfq7**5;<<<fmbj>><<>>>",
"ffq75*&&4&577;5&%+*&;;7q><<<;;;;;5;5q<><gkmjrq765q<<7jcMfq<><7;7",
"VBj7;;5;4&&;;q;;**;;;&>*<><>5&&#&&;5;><<<ffjzzicfqqfccMxf7><>;;*",
"AAm;*>><q;*&;77<<><>**&q><<>&&#o++&&;qq<<;7jxmMVmqqmZBMzfq<<;;&&",
"NVf;;;>>;5;&5fff><>>>q**<><5*&%#&&;;;q;5>;;rixMMkqqzmmse7*>>7;;*",
"gf<>;<<>*;5;fkcf<><>>>>>>q<;***;;;;;<;;*&&44qixcf<rzmfi15&*<<75>",
">;><<<r>5*;>fccjfq<<>>>fqq>>;*;q7<<<>5;&&%&*7qfzj<qzje41*&*><;q;",
"%%*7qfff5;;*ixMcmf<<><rfkfq;5;;>><<;5;;5&%%%*<fiqqqqe*%%*5;7>;;*",
" +%;fcZjq5*&7zmmmcf><>fcBcqq<<q<><q;**5;&+ %><><qq5*&%%%*7><>;&&",
"11>ifccfq5;&uiccMcd;<ffffd;;;q<ffqq55;;q;&**;><>555;&&%%><<>q7qi",
"lqjcmifqqq&&47ifcxddgBjf051;;<rckf>;;;7;>;*><<><;;*;5&+%%5><qfzx",
"xxxZcf;5>>*%%>7fxfe0fmc71&&&;qfcmfeqqqq<<><<<>q>5*;;<&++%>><ffBV",
"iixcze;;;**&*>7rf;55<zr>&*+&&qffcfkfkkfq><rrkjq<;5;q>&+O%*>>5dfl",
"qqfxse&&&%*&*>7qf>**>7<<*%+%*qqq<zxMBcfq<<<fBkf7>>5<<&+.+%&>>dq<",
"qqfxs7%%%%***>q7<7**57<<>%+X*77qqfccBBcq<<<kBBf><<<<<&+O+%&>><<<"
};
