/* XPM */
static char *fee2cfd3992445dfe42762f4eaab418eC1MyAt9m5qHM6BSp[] = {
/* columns rows colors chars-per-pixel */
"64 64 254 2 ",
"   c #010103",
".  c #0C0202",
"X  c #0B0607",
"o  c #020B04",
"O  c #030409",
"+  c #040C08",
"@  c #0B0C0A",
"#  c #170705",
"$  c #140C04",
"%  c #0C1209",
"&  c #081709",
"*  c #13130A",
"=  c #191809",
"-  c #1A1C13",
";  c #260606",
":  c #340506",
">  c #251807",
",  c #2D1A03",
"<  c #231D0A",
"1  c #331D03",
"2  c #381907",
"3  c #221D12",
"4  c #3A1615",
"5  c #0C2B08",
"6  c #1A250A",
"7  c #113C0A",
"8  c #2C2706",
"9  c #23230C",
"0  c #2C230A",
"q  c #232C0D",
"w  c #342605",
"e  c #352705",
"r  c #3C2D05",
"t  c #33240A",
"y  c #3C250A",
"u  c #352B0B",
"i  c #3B2C09",
"p  c #2A370C",
"a  c #3D320A",
"s  c #3A3609",
"d  c #282512",
"f  c #352D14",
"g  c #393615",
"h  c #460705",
"j  c #560802",
"k  c #471905",
"l  c #571704",
"z  c #6A0804",
"x  c #691903",
"c  c #751C02",
"v  c #462806",
"b  c #572A06",
"n  c #443406",
"m  c #4A3307",
"M  c #43340A",
"N  c #463A0C",
"B  c #4A3B0D",
"V  c #593608",
"C  c #453814",
"Z  c #4B3D13",
"A  c #443D1A",
"S  c #503214",
"D  c #6A2404",
"F  c #772502",
"G  c #68350B",
"H  c #73380E",
"J  c #433E28",
"K  c #1D530F",
"L  c #26420D",
"P  c #38470E",
"I  c #30570A",
"U  c #2C4411",
"Y  c #364412",
"T  c #385711",
"R  c #49440B",
"E  c #574509",
"W  c #4A590D",
"Q  c #474717",
"!  c #4D4213",
"~  c #4B431C",
"^  c #524414",
"/  c #564717",
"(  c #55491A",
")  c #5B4C1C",
"_  c #465912",
"`  c #5A5419",
"'  c #674719",
"]  c #774714",
"[  c #655817",
"{  c #61531E",
"}  c #755111",
"|  c #4B660F",
" . c #4A6614",
".. c #556813",
"X. c #5B7415",
"o. c #5C7A15",
"O. c #676617",
"+. c #72621B",
"@. c #657B18",
"#. c #564B24",
"$. c #504F2C",
"%. c #5C5322",
"&. c #5D532A",
"*. c #6C4520",
"=. c #635521",
"-. c #665A23",
";. c #6B5C25",
":. c #635C2A",
">. c #6D5E29",
",. c #765B24",
"<. c #645B35",
"1. c #586825",
"2. c #6D6125",
"3. c #6E622A",
"4. c #6D692A",
"5. c #726325",
"6. c #786823",
"7. c #73652B",
"8. c #76692C",
"9. c #7A6B2C",
"0. c #7A752B",
"q. c #696432",
"w. c #756834",
"e. c #7B6D32",
"r. c #7C7435",
"t. c #645E40",
"y. c #756E48",
"u. c #8A1402",
"i. c #AA1F01",
"p. c #842A02",
"a. c #8A2902",
"s. c #952B03",
"d. c #853808",
"f. c #943202",
"g. c #9B3402",
"h. c #9A3608",
"j. c #B22D03",
"k. c #A83703",
"l. c #B53C05",
"z. c #C53B07",
"x. c #8A450D",
"c. c #854B16",
"v. c #875619",
"b. c #94591C",
"n. c #B94408",
"m. c #AA5C1B",
"M. c #B05013",
"N. c #8B6C16",
"B. c #9A6827",
"V. c #90712E",
"C. c #827334",
"Z. c #887A37",
"A. c #A8742E",
"S. c #C64408",
"D. c #D05010",
"F. c #DB6C27",
"G. c #D2722A",
"H. c #897B48",
"J. c #877C55",
"K. c #009405",
"L. c #33950A",
"P. c #0DBA04",
"I. c #5C8715",
"U. c #518B10",
"Y. c #61930F",
"T. c #698617",
"R. c #728C19",
"E. c #6C9618",
"W. c #759419",
"Q. c #769A19",
"!. c #7B9B1A",
"~. c #4AA711",
"^. c #68AE18",
"/. c #77A51A",
"(. c #79B61B",
"). c #748629",
"_. c #08D004",
"`. c #39CF0F",
"'. c #07E903",
"]. c #07FB02",
"[. c #32E90B",
"{. c #75CA1C",
"}. c #8D8719",
"|. c #83A51C",
" X c #8FA619",
".X c #85AB1C",
"XX c #8AAE1D",
"oX c #8EB31E",
"OX c #89B81C",
"+X c #91B61E",
"@X c #94BA1F",
"#X c #99BE1E",
"$X c #8D8235",
"%X c #8E8F32",
"&X c #8E823C",
"*X c #94873B",
"=X c #95923D",
"-X c #AB843D",
";X c #B68439",
":X c #88AB24",
">X c #94B822",
",X c #96BC21",
"<X c #99BE24",
"1X c #90B428",
"2X c #D98A3A",
"3X c #E68B3A",
"4X c #F58E39",
"5X c #88C71B",
"6X c #94C21E",
"7X c #9BC21F",
"8X c #9FCC1F",
"9X c #A2CB1E",
"0X c #8ACB22",
"qX c #97C423",
"wX c #9BC125",
"eX c #9EC329",
"rX c #A0C62B",
"tX c #A3C92C",
"yX c #ACD32F",
"uX c #898546",
"iX c #958647",
"pX c #968A43",
"aX c #9B8D43",
"sX c #9E9244",
"dX c #968A55",
"fX c #908D57",
"gX c #B38D45",
"hX c #A29544",
"jX c #A2954A",
"kX c #A69A4B",
"lX c #AA9D4B",
"zX c #AA9C58",
"xX c #AEA04C",
"cX c #B4A64E",
"vX c #ADA155",
"bX c #B5A557",
"nX c #A69C69",
"mX c #A89C6D",
"MX c #AFA16F",
"NX c #B7AA68",
"BX c #B7AA7A",
"VX c #BCB175",
"CX c #C39649",
"ZX c #C89E50",
"AX c #D1A755",
"SX c #C9B36A",
"DX c #C7BA79",
"FX c #D4C76B",
"GX c #E8CF77",
"HX c #BEB183",
"JX c #C8BB85",
"KX c #D4BF8E",
"LX c #D4C78C",
"PX c #E8DD89",
/* pixels */
"@X@XoXXXXX+X@X@X+XXXXX.XXX@X#X<XtXrX<X,X<XeXeX<X,X+X+X+X+XOXOX(.(.OXqX6X5X5X5X5XOX#X#XwXtXeXwX@X@X@X@X#X,X<XtXtXtXtXrX#X@X+X+XoX",
"@X@XoXXXXX+X@X@X+X+XXX.X+X+X<X<XrXrX<X,X<XeX<X<X>X+X+X+X@X.XY.Y.U.U.U.U.I.U.Y.^.OX@X@XqXrXrXwX@X#X@X@X>X,X<XrXtXtXtXrX<X@X+XoX+X",
"@X@X+XoXXX+X@X@X+X+XoXoXXX+X>X,X<X<X<X<X<X<X<X,X6XOXOXOXoXT.R M m Z Z C Z S M ` /.OXOX(.6XqXqXqX<X#XwX,X<XrXrXrXtXrX<X>X+X@X+X+X",
"@X@X+XoX+X@X@X@X>X@X@X@X@X+X+X>X>X>X<XeX<X<X<X<XE.T L P ..) Z 7.Z.aXjXjXpXV.;.) ` W U U  .(.tXtXwX@XwXwXtXrXrXrX<X<X>X+X+X+X@X@X",
"@X@X@X+X+X@X#X,X@X@X@X@X@X+X+X+X+X>X<XwX<X:X/.T.p # 2 y ( >.C.&XpXaXjXjXpXZ.w.=.) S v # *  .Q.wX<X@X<X<XtXrXrX<X,X@X+X+X+X@X@X@X",
"+X+X+X@X@X@X@X@X@X@X@X+X+X+X@X+X@X@X,X<X,XE.g % > i Z ) 7.iXlXhXZ.w.>.7.w.7.8.7.7.,.#.m 1 - - ..:X>X>X<XrXrX<X,X>X+X+X+X+X+X+X+X",
"oX+X+X,X@X@X@X@X@X@X>X+X+X@X@X@X@X@X@X@XwX!.p @ A ( -.>.>.e.Z.H.pXpX*XpXpXpXiXhXhX=XZ.;.( f O _ >X@X>X<X<X<X<X>X+X+X+X@X@X+XoXoX",
"+X+X,X<X<X,X#X@X#X>X,X>X>X@X@X@X@X@X@XoX.Xo.p < ( >.e.e.C.e.w.Z.iXlXlXlXjXhXhXhXkXhX$X9.#.g % P R..XXX>X<X<X1X>X+XoX+X@X@X@X+X+X",
"@X@X<XrXrX<X@X@X@X,X<XrX<X,X,X>X+X+X.XX.q > 0 M ( >.r.aXlXlXlXhXZ.C.7.-.Z M w 9 8 0 q d - = % + & p R.,X+X>X+XoX+XoX+X@X@X@X@X@X",
"@X#X<XrX<X,X@X,X,X<X<XwX<X,X@X+XoX@XoX| O & t M ^ ( :.C.).=XuXr.7.( 1   3 t.y.J.J.y.t.#.8     d ~ #.` X.R.|.+X+XoX+X+X@X#X,X<X,X",
"#X@X,X,X<X>X@X,XwXrX<X<X,X#X@X@X@X@X.XO.t t y M M n M m b v v 2 > O o   J mXLXLXLXLXMXC.E u d ( 5.5.Z @ p !.+X@X+X+X@X@X#X<XrXwX",
"@X@X+XoXoX+X+X,XrXrX<X#X@X>X#X7X/. .P x.l.l.G 3 b p.h.l.j.g.u.z : o o o f w.dXzXNXNXuXJ #.A.gXB.v .   + Y W.@X@X@X#X@X@X#XrXrXtX",
"@X>X+X+X+X+X+X<XwXwX<X@X@X+X.XW.[ y x k.S.j.b o k a.k.l.S.D.m.m.d.j $ o & 5 R O.Z.$X>.y ,.CXAXZXaXe.&.# Y !.,X<X,X,X,X<X<XrXrXtX",
"+XoX+X@X@X+X@X@X<X<X@X@X@X|._ 6 b a.k.s.p.x 2 $ k x p.u.g.G.3X3Xm.s.z : & o % * - t G c.A.A.AXFXPXPXnXy p !.wXrX<X,X<XrXrXrXrXrX",
"oXoX+X+X@X@X@X@X@X@X@X@X>X:X_ % l p.p.D k 2 , 2 e k l z a.M.F.F.3XG.A.l.u.u.x h     O S ] ,.V.gXvXvX%XR.R.+XrXrXwX<X<XrXrXrX<XeX",
"oXoXoXoXoX+X@X@X@X@X>X+X+X(. .* k D x l @ o , v v b b b F u.i.S.G.4X4XF.D.n.k.f.D k , ; : : : ; . 8 T.6X6X#X<XwX<XrXrXrXrXrX<X<X",
"oXoXXXXXXXXX+X@X@X@XoXoX+X.X_ & k F c l . O 6 n ] } c.c.c.H c s.M.D.F.3XCXG.S.z.z.z.k.g.F c x h . 6 T.OX@X@X,X<XwXtXrXrXeX<X>X<X",
"+X+X+X XXX+X+X+X@X+XoXoXOXXXW o   # : S Z ~ R E V G v.A.;XB.] c u.j.D.F.3XD.n.l.l.l.l.k.f.p.D l # 7 I.oX+X@X@X<XwXrXeX<X<X<X,X,X",
"@X+X@X+X@X@X@X+X+XoXOX XoX!.O.w 2 3 f #.>.7.e.e.#.s ,.gXZXCXB.v.h.f.g.l.S.l.g.f.g.g.g.f.s.p.D l ; p I.OX+X+X@X,X@X<X#X,X>X@X@X@X",
",X<X#X@X@X@X@X+XoXoXXXE.I ! B.2X3X2XG.B.E y.mXJXNX*XC.;.,.V.CXCXB.F u.i.k.l.n.l.k.f.p.p.F F F c F } W.+X+X+X@X@X@X@X+X+X+X>X@X@X",
"rXwX<X@X@X@X@X@XoX.X/.R.=.B.G.3X4X4X2XM.v $.mXJXDXSXdXr.( N.-XgXB.H c p.s.k.S.n.n.k.f.p.F F F c j E /.@X@X@X@X@X+X+XoX+X+X+X@X@X",
"tXrXwX<X@X#X@X>X XT...B.CX3XF.D.S.D.S.h.m p ` y.nXJXJXNXsXC.) V ] v.c.F c a.g.k.n.S.l.g.p.p.D l ; L Y.6X6X@X@X,XXX.XXXXXoX+X@X@X",
"rXrXwX<XqX@X@X@X XN.n.D.F.F.D.k.i.k.k.g.p.G v E uXMXHXFXFXMXiX9.[ b G ] ] d.p.s.k.j.k.s.F k 2 F k.M.}  .Y.:X@X+XoX.XXX+X+X@X<X<X",
"rXrXrXrXwX,XoX|.}.M.D.D.z.z.l.k.g.g.f.g.k.s.l s ..$XzXBXHXHXbX=XC.) ' } x.] D c a.a.p.x j ; 2 h.S.z.a.X U /.oXoXXX XXX+X@X<XrXrX",
"rXrXrXtXrX6X/. .} M.D.D.S.S.S.S.l.g.f.g.k.f.D 8 8 n N ~ %.<.e.Z.jXlXaX;.v r m b x z j : l F s.k.k.h.D @ T /.oXoXXXXXXX+X<XwXtXtX",
"<X<XeXrXeXqX!.+.] d.g.j.l.l.l.n.l.k.g.a.F G E =.w.fXJ.r.+.[ { { e.Z.8.( > $ w E v.Z.J.dXJ.V.p.a.f.h.x O T /.,X@XoXoX+X@X,XeXtXtX",
"<X>X<XeXqX.X}.N.v.Z > l p.h.h.f.g.g.f.x # 5 R e.mXJXLXSXlX$X/ , e C B B r 1 M ;.*XbXSXLXHXy.v z s.s.x - T :X,X@X@X+X@X@X#XwXtXtX",
",X>X<X:X..8 b ] v.c.' V v x p.k.f.D k w 8 u s ) w.J.dXuXZ.;.M C 9.*XC./ n Z =.7.r.Z.uXdXH.<.i k l V X./.OX1X,X@X@X@X@X@X,XwXrXtX",
",X@X>X1XuXH.*XA.B.b.c.H & O x a.F v & 5 r M B ( 5.C.0.7.=.Z i ;.sXbXsX-.y ( 7.e.Z.C.w.[ E a q + O L ^.tXqX,X@X@X+X+X+X@X@XqX<XwX",
"@XoX1X1XFXPXGXAXgXA.b.H 3 O O = , i a a n ! ) 8.aXlXkX5.i M =.C.aXlXaX=.e ^ 3.Z.kXlXZ./ # # @ + O L ^.qX+X@X@X@X+X+X+X@X@X@X@X#X",
"OXW.X.%XbXGXGXGXSXAXA.B.v.H 2 + & w B / ` =./ ) >.C.9.^ w ;.*XaXaX&Xe.( r M ( -.9.9.%.q 1 b H H G V `  .E.6X@X@X@X+X+X+X@X+X+XoX",
"OXR._ 6.-XCXSXGXPXFXAX;XB.H k * + = M { 7.;.) C e 1 , , ^ e.hXhXZ.;.( m n M Z C M r - O v ] b.B.V.B.' O p I..X+X@X@X+X+X+XXXXXXX",
"OXoX.X}.b.B.gXAXSXAXAX-X'           * w N ' 5.5./ M M ) 3.e.C.e.-.Z a r B ) ;.>.7.>.Q & 2 H v.gXZXCXV..   o p R.wXwXqX@XoXoXXXXX",
"@X@X@XoXN.N.V.A.;XA.A.Z.e.q.3.9.:.#.g $   # C %./ N Z ) =.=.%.( N t , e Z { 8.7.4.' 4 O h H b.A.gXH.,.( <.fXJ.).@.....o.Q.OXoXoX",
"@X@X7XoX/.W.N.v.c.k # :.jXcXcXbXhXZ.q.#.f - * = 0 i n M M M n u = @ = e B { >.;.^ i 5 7 C } c.H > & n 8.MXJXJXfX9   $ f o.OX@X@X",
"<X<X@X@X@X X@.! k # = / e.uXjXlXlXhXsXMXHXmXw.n > $ $ e n e #       = e B Z ^ S ; 7 P.].[.L.k h ; %   C uXNXNXH.* Q pXsXC._ 9 8X",
"wXeXwX>X@XOXo.p + 8 n ! ( >.Z.iXaXaXjXNXJXDXMXiXw.#.9 w u a g A g g C a e e t ; O 7 _.'.'.K.O ; v n # $ %.$X*X%.= %.aXjXr.3   9X",
"wXeXwX@X>XoX@.Y 8 u n n n ^ =.8.e.2.w.iXkXNXJXLXMXH.E w - g 5.9.C.9.-.f O o * @ O * 5 7 7 5 * 1 M n m i u 9 9 > r ) 8.e.` -   9X",
"<XqX@X,X,XoXT._ q 6 & 6 w B ) >.r.&XpX*X$XuXdXdXH.:.R 8 & d g ~ ~ ~ g - + X + y ' H z ; - _ T.| u 0 0 0 #   # M { 9.*X*Xw.<   9X",
",X,X@X,X>XoXR. .g u y y w C / -.Z.jXkX*X3./ w $ ; n i = + % 3 d d < < < * @ o S v.v.] > Y |.8XQ.U % O + u M ( { >.$XlXjXC.Y $ 7X",
"#X@X@X@X+X+XR...` c.c.] w & u B / ) / / ^ r = o > n i X O g -.6.7.7.[ Z e = @ , b b v * L E.#X@X.X@.q O A 2.8.{ ^ Z ~ Y @./.!.1X",
"@X@X+X+X+XXXR.| [ +.b.c.v o 9 r r # # w n w       < a C #.%.-.;.-.%.( B e 1 $         O Y Q.#X+X@X@XT.| ` %.) Z , X 6 _ W.wX>X@X",
"#X@X+X+XoXXXR. .[ v.v.] y + 6 n w * $ > w r u 9 * + g -.8.;.Z e $ @ < M B B Z Z f 6 = @ p T.oXXX+X@X#X@XT.q @ @ * _ !.>X@X7X@X@X",
",X@X+XXXoX.XW._ ` v.b.c.M O @ - O         s Z.*X0.C , a g f 9 $ > t C ) 7.Z.hX=X=X$X;.w . 6 T @.|.@X@X,X|.E.@.@.T.Q.>XwX<XqX@X@X",
"@X@XoXXXXXoX|.T.O.} v.H t o o @ g ( $.<.<.J.vXNXsX%..     O @ 8 w n / ;.r.Z.sXvXSXbXdX9.E > o W .X@X@X@X+X@X#X7X7X@X,XeXrXwX>X@X",
"@X@XoXoXoXoX@X>X|.O.b w > + . 1 >.*XbXSXJXLXLXJXnX&.O X * < M a i n ( ;.7.6.6.dXBXJXNXzX&X%.= | XX#X+X+X+X>X,X,X,X,X<XrXrX<X,X@X",
"+X+XoXoX@X@X@X@X|.W , ; ; u N { 0.hXbXDXLXLXDXNXiX#.q L.~.L.U 1 y M ^ / ) { 7.H.nXVXDXDXVXzXZ.0.@.@.!.oX@X,X<XrX<X#X<XrXrXwX7X@X",
"oX+X@X@X@X@X@X@X|.W & < M ^ ) >.0.*XkXBXHXVXvXpX0.g I (.5X^.I ; 2 a r e a Z { C.=XlXNXDXDXNXhXC.g q T.oX#X<XrXrX<X@X<X<XwXwX>X@X",
"+X+X@X@X@X@X@XrXXX_ o f =.;.) C C / ) =.<.q.C.r.;.g P E.@X@XoXT.Q 8 * % $ . 1 9.=XxXiX<.#.) ) Z < p T.:X@X,X<X<X>X>X>X,X<X<X#X#X",
"@X@X@X@X@X@X.XW.).0.w.C.e.8.>.) Z r ; . . , E ) ` Q | Q.+X@X7X@X| *     u %.8.&XpX&X7.,   # 1 , = p T.+X#X>X>X+X+X+X+X>X,X,X@X@X",
"@X@X@X@X@XoXT.g ` aXvXjXr.>.3.6.;.! r n m B M N R ..T..X+X+XOX!._ 6 $ > ) pXvXjXZ.>.) Z i M a s p _ W.+X@X+X+X+X+X+X+X@X@X#X<X<X",
"+X+X@X@X@X+Xo.6 g e.$XC.=.^ ^ ( Z n M ) 2.;.! p ..Q.oX+XoX!..._ R R / { ;.3.>.7.7.,.>.>.%.C 9 P @.|.XX+X+X+X+X@X+X@X+X+X@XwXtXtX",
"+X+X+X@X@XoXX.6 d ~ ) ( B r r r B ^ / -.5.=.Q q X.+X@X@XXX@.p * 9 s ` 7.7.=.B Z =.-.>.7.%.g 6 ..+X,X@X@XXX@X@X@X#X@X+X+X@XrXyXyX",
"+X+X@X@X@XOXX.9 @ % * 0 i m w n / 5.9.{ ^ e < q ..|.@X@XoX@.Y =   @ A ;.C.9.9.[ / M M B C a Y @.XXwX<X@X+X@X+X+X>X@X@X+X@X<XrXrX",
"@X@X@X@X@XoX..6 * < > 8 > @ X $ f A ~ Q i N ..@.!.oX@X,X7XT.Y * < 0 a A A A A C u > > > N ..W.|.>XeXeX<X@X+X+X+X@X@X#X@X@X#X#X#X",
"@X@X@X@X@X+Xo.6 - e M N f 9 f f 9 @ @ q _ T./.@X+X+XoXXX|...Y 0 i M n d - d d - % + 6 Y X.|.qX<XeXrXrXqX@X+X+X+X@X,X,X,X@X@X@X@X",
"+X@X>X>X6X6XU.6 $ t M / ;.9.e.w.-.g p ../.OXoXoX+X@X!._ 8 f N R a M ^ ;.5.8.6.-.f 6 | !.@X@XwXeXeXrXeX<X+X+X@X@X<XwX<X#X#X+XoXoX",
"oXOX>X.X!.X._ f t e r B / { / E B 0 6 X.oX.XoXoX,XoXQ.U + 0 a B n n ^ ) =.=.) N o 6 @.#X#X@XeXtXtXeXeX>XoX+X@X,XrXtXrX<X@XXX.X X",
">X>X>XQ.U @ , g M M B C N Z B ^ g 3 & ...XoXoX+X@X+X^.T % 0 i M M M N B M B B C p $.).XX@X@X@XeXeXeX<X>XoX+X@X,X<XrX<X<X<X1X>XoX",
"eXeXqX/.p @ , i B ( -.9.$XkXMXBXnX<.o ..@X@X+X@X@X@X/.T * 0 a m n M Z ) 3.Z.=XvXVXVXfX1.P U P R.wX<X>X>XoX+X@X,X#X<X<XrXrX<X<X<X",
"tXtXqXW.s X ; t ! { 8.Z.*XvXDXLXBXy.e P T./.XX@X@X@X^.P X ; : : 2 M ^ ) 8.$XsXvXVXVXnXr.! C g ` @.!.XX>XoX+X+X@X@X>X<XrXtXrXrXrX",
"wXwXqXQ.P 5 > 1 ! -.4.7.7.C.aXxXlX&X;.! - p R.+X,XqX(.T * & % 3 2 M m Z m N S ) 3.C.aXvXlX&X8.#.d 9 @.XXoX>X+X+X+X>X<XrXrXeX<X<X",
"@X@X@X{.`._._.K : k A A C Q %.>.:.` A g * 6 T.6XqXeX{.`._.'._._.L.9 ; ; > # . ; w R :.9.w.-.~ f 3 5 I.OXoXoXoXoXoX+X1X<XeXwX<X>X",
"@X@X@X{.[.].'.K O + O O O O O O   O O + * g T.@X,XtX0X[.].].].].P.5 X X + % % + o O       O O O X L Y.OX+XXX+X+XoXoX<X<XeX<X,X>X"
};
