/* XPM */
static char *_e3ecf3a62604b069d2113d34aae0fc1QBrb1u9HXel94HPe[] = {
/* columns rows colors chars-per-pixel */
"64 64 255 2 ",
"   c #070905",
".  c #0B0C04",
"X  c #0B0C09",
"o  c #160D05",
"O  c #0C1507",
"+  c #0C1209",
"@  c #1D1505",
"#  c #161807",
"$  c #131309",
"%  c #1A1509",
"&  c #1B1C0A",
"*  c #260C07",
"=  c #370C08",
"-  c #221404",
";  c #231B05",
":  c #2A1907",
">  c #211C09",
",  c #381606",
"<  c #0D2F0A",
"1  c #1C220B",
"2  c #1C280A",
"3  c #153609",
"4  c #2B2406",
"5  c #24240B",
"6  c #2C240B",
"7  c #232B0B",
"8  c #2C2A0B",
"9  c #342505",
"0  c #3B2304",
"q  c #352906",
"w  c #3C2C06",
"e  c #33240A",
"r  c #3B240B",
"t  c #342B0B",
"y  c #3B2D09",
"u  c #2B320B",
"i  c #2B390C",
"p  c #3E3106",
"a  c #3D320A",
"s  c #363A0C",
"d  c #2C2813",
"f  c #352C13",
"g  c #283F10",
"h  c #3A3515",
"j  c #3C3921",
"k  c #480F0A",
"l  c #481704",
"z  c #571804",
"x  c #680E02",
"c  c #681802",
"v  c #751B02",
"b  c #462808",
"n  c #582A05",
"m  c #473208",
"M  c #43340A",
"N  c #463A0C",
"B  c #4A3B0D",
"V  c #593609",
"C  c #493716",
"Z  c #433B15",
"A  c #4C3D12",
"S  c #443D1A",
"D  c #523214",
"F  c #662705",
"G  c #6D2204",
"H  c #782603",
"J  c #67390A",
"K  c #77360B",
"L  c #673C13",
"P  c #433E28",
"I  c #0E4707",
"U  c #34420E",
"Y  c #3B4B0E",
"T  c #31510B",
"R  c #394811",
"E  c #3A5511",
"W  c #2A6A0E",
"Q  c #47470D",
"!  c #56460C",
"~  c #4A570D",
"^  c #464716",
"/  c #4D4213",
"(  c #4B431B",
")  c #524414",
"_  c #544A14",
"`  c #5C4A15",
"'  c #53461A",
"]  c #55491B",
"[  c #5B4C1C",
"{  c #435612",
"}  c #495C12",
"|  c #585716",
" . c #5D511D",
".. c #6F4D0C",
"X. c #674616",
"o. c #7A4915",
"O. c #645A16",
"+. c #61531E",
"@. c #785616",
"#. c #4B690E",
"$. c #4C6413",
"%. c #516512",
"&. c #566A14",
"*. c #5B7315",
"=. c #5A7A15",
"-. c #666816",
";. c #647D16",
":. c #667919",
">. c #574C23",
",. c #5C5222",
"<. c #5C5627",
"1. c #53522D",
"2. c #6C4D20",
"3. c #635521",
"4. c #665924",
"5. c #6A5C25",
"6. c #625A2A",
"7. c #6C5E29",
"8. c #785B23",
"9. c #645A35",
"0. c #6D6125",
"q. c #6E612A",
"w. c #73652C",
"e. c #76692D",
"r. c #78682A",
"t. c #637225",
"y. c #797429",
"u. c #6C6533",
"i. c #746934",
"p. c #7B6D32",
"a. c #7D7233",
"s. c #7B7237",
"d. c #645E40",
"f. c #766E46",
"g. c #871A02",
"h. c #862603",
"j. c #842B02",
"k. c #8C2D02",
"l. c #952A02",
"z. c #863706",
"x. c #943202",
"c. c #9A3402",
"v. c #963609",
"b. c #AA2A02",
"n. c #A83704",
"m. c #A43903",
"M. c #B33C04",
"N. c #B73C05",
"B. c #C23F05",
"V. c #824D16",
"C. c #8C4D13",
"Z. c #88561A",
"A. c #BB4106",
"S. c #AD5112",
"D. c #886F16",
"F. c #9C5E22",
"G. c #8F6F2B",
"H. c #996828",
"J. c #827434",
"K. c #867A36",
"L. c #857A39",
"P. c #8A7D3A",
"I. c #987536",
"U. c #B4702B",
"Y. c #A87B36",
"T. c #C74609",
"R. c #D04A0C",
"E. c #C85415",
"W. c #D56F29",
"Q. c #D2702A",
"!. c #DA712B",
"~. c #887B49",
"^. c #937C45",
"/. c #827B55",
"(. c #078505",
"). c #33860A",
"_. c #0CAA04",
"`. c #578D11",
"'. c #598A12",
"]. c #61930F",
"[. c #698617",
"{. c #728C19",
"}. c #6A9518",
"|. c #75941A",
" X c #769819",
".X c #7B9B1B",
"XX c #79A41B",
"oX c #71B318",
"OX c #748629",
"+X c #0AC704",
"@X c #08D703",
"#X c #31C70B",
"$X c #0AF702",
"%X c #3AE80E",
"&X c #77C71B",
"*X c #898B19",
"=X c #83A41C",
"-X c #8FA019",
";X c #85AB1C",
":X c #8AAE1D",
">X c #8EB31E",
",X c #88B81C",
"<X c #91B61E",
"1X c #94BA1F",
"2X c #8B8637",
"3X c #8E823C",
"4X c #93863E",
"5X c #89953A",
"6X c #A7823D",
"7X c #B4843C",
"8X c #87AB23",
"9X c #8EB523",
"0X c #92B621",
"qX c #96BC21",
"wX c #99BE24",
"eX c #9ABE29",
"rX c #9FB437",
"tX c #D78236",
"yX c #E68336",
"uX c #83C11B",
"iX c #96C224",
"pX c #9BC125",
"aX c #9EC329",
"sX c #81D322",
"dX c #A0C62B",
"fX c #A3C92C",
"gX c #ACD32F",
"hX c #8B8248",
"jX c #938642",
"kX c #968A42",
"lX c #9A8D43",
"zX c #97894C",
"xX c #9D9248",
"cX c #958A56",
"vX c #B68B43",
"bX c #A1944A",
"nX c #A69A4C",
"mX c #BD9449",
"MX c #A79A55",
"NX c #B4A65B",
"BX c #989063",
"VX c #A69A64",
"CX c #AB9F70",
"ZX c #ACA268",
"AX c #B5A867",
"SX c #ACA172",
"DX c #B7AA77",
"FX c #BEB179",
"GX c #C79C4E",
"HX c #CDA657",
"JX c #D7BA69",
"KX c #C3B678",
"LX c #D7C974",
"PX c #E3CB78",
"IX c #C9BB85",
/* pixels */
">X>X<X1XwXaXfXfXfXfXpX1X1X1X1X1XqXpXaXfXpXiX1X,XuXuXuXuX,X,X,XoX;X,X1X1X<X>X<X1XwXeXaXwXqXwXaXfXaXqX<X>X;X:X<X>X1X1X<X:X:X>X1X1X",
"<X<X<X1XwXpXfXfXfXdXpXwX1X1XpX1X0XiXaXfXiX1X1X,XXX].].].`.`.`.'.`.].;X<X<X<X1X1XwXpXaXeXqXwXdXdXpXwX<X>X;X:X>X<X1X1X<X:X:X>X1X1X",
"1X<X<X<XqXwXaXdXdXdXaXpXpX1X1XpXaXaXiX9X;X;X;X X&./ Q ! _ ] _ ) ! ~ [.=X,X;X;X,XqXwXiXpXpXwXeXwXqX<X<X>X:X<X1X1X1X1X<X>X:X<X1X1X",
"1X1X<X<X<XqXqXpXdXdXdXdXpXpX1XpXfXdXXX#.T E ~ | X.5.J.4XlXlXjXK.0.[ | %.~ T ~ }.9XqXwXwXaXwXqX0X<X<X<X<X1X1X1X1X1X1X1X>X>X1X1X1X",
"1X<X1X<X<X<X1XqXeXdXdXfXdX1X1XwX9X|.$.7 : y A [ 4.r.P.kXxXxXlXlX3XJ.w.' p 6 & Y ;..X9XwXpXwX1X<X<X<X<X<X0X1X1X1X1X1X1X1X<X<X1X1X",
"<X<X<X1X1X<X<X0XwXwXaXdXpX1X1X8X&.7 d e N  .q.w.w.w.e.p.p.e.J.P.bXlXP.w.[ A 0 4 5 Y |.0XwXwX1X1X1X<X<X1X<X1X1X1X1X1X1X1X1X<X<X<X",
"<X<X<X1X1X<X>X<X0XqXeXaXwX0X1X8X} # f ' q.K.jXxXlXkXkXkXjXkXjX4X3XK.p.w.5.3.[ Z & s |.1X1X1X1X1X1X1X1X<X<X0XqX1X1X1X1X1X1X<X<X>X",
"<X<X<X1X<X<X<X<X<XqXqXeXqX:X=X:.R # h >.q.J.jXxXkXkXlXlXxXbXxXjXK.p.p.J.p.p.7.>.8 u *..X:X<X<X<X1X1XqXqXqX0XqX1X1X1X1XwXpXqX<X<X",
"1X1X1X1X<X<X>X<X<X<X9X0X9X[.Y 7 $ + & 5 f h ( h S S ( [ 3.w.J.jXxXbXnXxX4Xa.q.] N 4 8 U *.=X<X<X<X1X1XwXpXwXqX1X1X1XwXpXdXwX1X1X",
"pXwXwX1X1X<X<X<X>X<X=X{.*.| >.( 5   X 8 >.d.f.f./.f.9.d o e ' q.J.P.2X~.i.0.] / N 8 O O $.-X<X<X<X1X1XpXpXpXwXwXwX1XwXpXdXwX1X1X",
"pXpXpX1X1X1X1X1X<X<X|.Q 1 ^ ,.4.>.f y ) s.BXFXIXIXDXBXP     o : b n V V V V m m M r r b &.=X>X0X1X1X1XpXpXpXpXpXwX<X1XqXwX1X1XwX",
"fXfXpX1X1X1X1X1X1X1X|.R $ o ; V G.Y.I.X.1.~.AXAXMXcXu.f     . = x g.l.n.m.c.H b : J v.n.C._ &.XX1X1X1X1X1XpXdXdXpX<X>X>X<X1X1X1X",
"fXfXpXpXpX1X1XpXwX1X XT : 1.f.zXGXGXvX8.D 7.L.K.7.^ 7 O X o l K S.S.T.B.M.m.j.z % F m.M.m.F m O.*X=X<X1X1XpXpXpXqX<X<X<X<X<X1X1X",
"fXdXdXdXdX1X1XpXdXwX=XQ N xXKXPXJXGXvXH.o.V t 5 & % $ % = x v.Q.tXyXU.m.g.v G l % = c h.x.x.j.V t &.;X1X1XqXwXwXqX1X1X1X1X<X<X>X",
"dXdXdXfXdXpX1X1XdXdX<X{.{.5XnXMXjXG.8.X.C o X . l v v g.S.E.Q.!.!.W.S.h.x n l , , : , l G j.H z & } =X1XqX1XqX1X1X1X<X1X<X<X>X>X",
"1XpXpXdXdXdXdXdXdX1XiX1X>X[.s - , k k l , , l G k.n.T.R.W.tXyX!.E.b.l.H F F n m b ; . o z c G l 1 $.XX1X<X<X<X1X1X<X<X>X>X>X>X<X",
"1X1XwXdXdXdXfXpXwX1X1X1X>X'.2 o l x v H x.m.M.N.N.T.W.yXyX!.E.A.l.H z.V.V.o.o.X.m 5 X % z c c l 1 $.XX<X>X<X1X1X<X<X:X:X:X:X>X>X",
"1X1XwXeXeXdXdXwXwX1X1X1X>X'.g * z G h.x.m.M.N.N.M.A.E.!.Q.E.b.l.H o.H.Y.Y.Z.J V ! / ( A D , * o O } =X>X>X<X<X1X<X<X>X>X:X<X<X<X",
"1X1X1X1XqXwX1X1X1X1X<X<X,X].s , z G j.k.x.c.c.c.c.n.M.T.A.b.x.z.C.H.7XmX6X@./ 6.p.p.i.4.` C t r m O.|.;X-X<X>X<X<X1X1X1X1X1X1X<X",
"1X1X1X1X<X1X1X1X1X1X1X<X<X|...c v G H H j.j.x.m.M.N.N.n.l.g.h.H.7XmXI.r.r.K.kXZXSXVXi.` F.U.tXtXQ.H.| $.].;X>X<X<X1X1X1X1X1X1X1X",
"qX1X<X<X>X>X>X<X0X1X1X0X<X X! x c H H H j.x.m.M.A.A.n.x.h.v K H.6X6XG.4.s.MXAXFXDXBX1.V S.tXyXyXtXQ.H.@.[.XX;X<X1X1X1X1X1XpXpXpX",
"1X1X<X<X>X:X:X>X1X1X1X,X,X].Y k z c h.k.c.M.T.A.n.c.k.H H V.V.o.` O.K.xXAXKXKXVX~. .U V v.T.T.T.E.Q.yXQ.I.-.[.,X1X1X1X1XpXpXdXdX",
"wXwXqX<X<X:X-X>X1X1X;X].&.@.C.v.H l l H k.n.M.m.x.j.H C.o.J J O.r.jXZXKXKXKXAXhX` n F z.c.n.n.b.n.E.W.W.E.S.D.-X1X1X1XiXpXpXdXdX",
"dXpXwX1X<X:X;X:X>X0XXXE : j.N.N.v.z = z c v l.h.H F K V.@.X.+.a.kXMXAXSXZXbXK.-.M z k.c.c.c.x.x.S.n.B.T.R.R.S.*X=X<XpXpXdXdXfXdX",
"fXfXpXwX<X>X;X;X<X<X XE > G v.n.c.k.H z k z v c F m b m 5.P.lXkXP.p.e.6.6.+.! M p F k.c.c.c.m.A.B.T.B.T.R.T.S.@.*.XXiXdXfXdXdXaX",
"fXfXpXwX1X<X<X<X<X<X.XE % F l.c.k.j.G./.cX^.I.8.` q - 4 ' e.K.p.3.[ O.8.s././.i.3.V J H h.x.c.A.N.B.N.M.n.v.z.o.-.=X1XaXdXpXaXwX",
"fXfXpX1X1X1X1X1XqXqX8X$.u F z.k.x b f.SXFXAXnX3X0.M 0 w B ) ' B w ] K.bXAXKXDXBXe.Q 7 : c k.c.c.c.c.c.z.n , L V.Z.*X=X1XaXwXqXqX",
"dXdXdX1X1X1X<X1X1XiX9X8X X-.V l l M 9.~.cXzXL.p.w.+.B M ] J.P.r.B B 5.P.^.zX/.s.[ p 8 4 0 l G x.c.j.z n L X.@.Z.C.J Q =.8XwXqXqX",
"pXpX1X1X1X1X<X<X1XqX1XiXiX}.U   X 6 a ! O.e.J.L.p.w.] M +.kXnXlX4.B A 3.w.J.J.7.] B N p 2 O b G H z o > X.C.F.H.I.^.hX=X8XqXwX0X",
"1X1X1X1X1X1X<X<X1X1X1X<XiX}.s X o % - * _ J.xXlXK.7./ M 3.4XnXlXJ.3.B B q.kXbX3Xw.[ A m a y q 6 : o X r J Z.U.7XHXPXLXLXrX8X,X1X",
"<X>X<X<X1X<X<X1X1X1X>X}.#.| ! L L L V , t <.e.e.4.' M w ] p.3XkXkXP.O.M / w.p.0.[ [ 3.3._ B t + + : D Z.H.6XHXJXPXPXPXNX5X;..X,X",
":X:X>X>X<X<X1X1X,XXX[.i & 2.F.H.H.Z.o.b + 5 N A A A m M B ' 7.P.xXlXa.) 0 0 w M A [ 4.7.[ M - X X l J H.6XGXJXPXPXJX7XU.y.&.{.>X",
":X:X9X9X>X,XqX0X{.R 7 O % G.7XGXY.Z.K , $ j 4.7.7.4.] B w p C 4.p.J.p.7.` m M ] 4.4.[ A r ; . + . . @ X.6XGXHXHXHXmXH.D.-X=X<X>X",
",X>X>X.X*.&.&.=.L.cXf.9.>.7.G.I.I.H.K = X r 2.w.r.w.3.B q : e N ' +.3.3.[ A N ' ' Z - . - h ] 6.w.u.u.s.P.I.Y.7XY.H.D.D.:X<X1X<X",
"1X:XXX:.^ 8 + f cXDXFXcX7.N 5 : L V.@.Y I 3 h ( 4.7.+.B q @ o & r M M M M M y 4 > d d j >.w.K.xXnXnXnXjX6.4 b o.Z.D..X=X<X1X1X1X",
"1XU $.y.3XK.S d f.ZXNX~.Z . @ - k b ).#X@X_.I = D ' ) B w % X   . - q M q - @ 9 A f.BXCXVXxXbXnXMXbXjXp.[ ; * b ! :.=X1X1X1XwXwX",
"<X  6 i.kX3X,.6 <.K.a.<.> @ p b * + (.+X@X_.I X * e 0 t y h S h h h a f q 8 ( i.zXVXFXKXAXbXkXlXlXP.7.] A m 4 # i :.:X1X1XpXpXdX",
">X  5 ,.p.w. .a u 8 6 s r M M M e & < I I 3 O $ o X X . h ,.7.w.i.4.S & q ! f.VXFXDXAXnXkXJ.p.p.r.4./ M M M s d R ;.:X1X1XpXeXdX",
"<X  d u.3X4Xp.+.N - . - 8 6 : s $.'.} 7 * z L L r X     & h S ( ( S 5 $ 4 B 7.~.cXcXjXP.4X4XP.J.7.` B 0 4 # & u { [.<X1X1XwXwXwX",
",X7 ^ a.kXlXJ.7.+.' m 6 o $ 1 E |.9X XU : L o.o.D X X $ > d f d d d # + ; w w : - w _ w.P.kXkXK.4.] M t t r t s } {.<X1X1X1XwX1X",
"<X.X X:.] ( / / +.7.4.S # i *.XX9X9X}.s & b n b : . # q A [ 6.7.7.,.h $ % w w ; . @ p A ` [ ] _ Z t % f ..V...~ %.|.>X<X0X1X1X1X",
"1X<X<X X#.s # 6 ^ ]  .| $.[.:X1X<X9X}.R $ . . . o o : w B ' ,.3.3.3.,.( Z a ; .   o 9 M 9 - - 0 y > X b o.Z.Z.O.%.|.>X>X1X1X1X1X",
"1X1X1X1X<X|.{ 7 & 5 U [.:X<X1X<X:X=X:.s # 1 8 f A A A B M 6 % > r C 3.7.,.f $ & 8 t w 9 ; . o e y 5 + f o.Z.Z.O.%.{.:X>X>X1X1X1X",
"1XiXpXpXwX<X|.[.;.;.{.=XqXqX1X=X;.{ 7 # y 0.K.4X4X4XP.0.[ N 6 - @ 5 f h f 6 A e.3Xy.N     .   o & + X b o.Z.@.O.%.{.:X>X>X<X1X1X",
"1X1XwXdXaXwX1X1X1X1X1X<X<X<X1X=X$.& 4 / r.xXNXAXMXxX2Xp.7.] M q 4 %       o [ zXNXVX/.9.9.1.' h o   . e J o.@.;.[.=X>X:X;X>X1X1X",
"1X1XeXdXaXwX1XwX1XpX1X<X<X<X<X.X} u ,.2XMXFXKXDXcXr.0.r.5._ M p a y 7 < O # 6.BXFXIXIXFXAXMX3X-.q . X - b m -.*X<X1X<X:X>X<X1X1X",
"1X1XwXdXdXiX1XwXpXpX1X<X<X.X;.:.y.2XMXAXKXKXAXMX^.0.+. ._ A m r , U #.`.#.i _ hXAXKXIXIXKXNXbXJ.+.N q - - 9 ~ =X1X1X1X<X<X<X<X<X",
"1XpXwXdXeXwX1XpXdXdXpX1X>X[.s ^ y.4XMXDXDXAXMXxXJ.+.A a 0 w a r 8 W oX&XoXW ^ y.lXNXDXDXZXxX2Xp.7.+.' M : & ~ =X1X1X1X1X1X<X<X>X",
"1X1XpXpXqXqX1X1XpXwXwX1X<X;.s q Z [ +.>.u.zXnXlXr.M * # $ # 5 Q [.;X<X<X}.{ ^ 0.p.J.7.9.,.[ _ ) A 3.5.3.h 1 } ;XiX1X1X1X1X1X1X1X",
"1X1X1X1X1X<X<X<X<X<X1X1X<X:.R 5 4 0 - o 0 7.P.kXP.p.,.t     1 $.;X1X1X<X X$.{ ] [ _ 0 @ * : m A [ 4.w.p.a.i.y.OX|.;X1X1X1X1X1X1X",
"pXpXpX1X<X<X<X1X<X<X1X1X<X{.} s a a w m A [ w.L.lXxXK.[ : ; 7 { |.:X<X<X=X[.%.! N m B m w w B 3.w.7.7.J.kXbX2X6.Q [.<X1X1X1X1X1X",
"dXfXpX1X1X<X1X1X<X<X<X<X0X:X=X[.Y 8 Z ,.4.w.q.w.w.q.q.7. ._ N Q { &.|.<X<X:X|.%.s / 3.4.[ M M / ' ) A 3.a.2Xi.h i =.:X1X1X1X<X<X",
"gXgXpX1X1X1X1X1X1X1X<X>X<X1X1X;X&.7 h  .5.7.4. .) ) 4.w.w.[ a 5 ; U =.9X1X1X:X*.i ( ,.5.4.[ ) m m 0 w B ] [ ( d 7 *.<X1X1X<X<X:X",
"fXfXpX1X1X1X1X1X1X<X<X<XqXwXeX:X;.^ U B B B M ' +.q.e.w.4.( % . # U ;.:X1X1X=X*.s u p / +.q.4.] p w p a e & $ $ 7 :.;X1X1X1X<X<X",
"iX1X1X1X1X1X1X1X<X<X1X1X1XdXdXqX=X{.&.Q 8 ; ; t Z S ( S S a 6 & & U [.1X1X1X>X|.;.%.Q s ( ( S t @ o @ ; 6 > ; % 7 &.:X1X1X1X1X1X",
"1X1X1X1X1X1XqX1X<X<X1X1XwXdXdXpXqX1X=X*.R 7 $ & 5 f d d f M M y 8 s &.|.=X0X<X<X>X.X[.} i & & 5 d f d h a M r & 2 =.:X1X1X1X1X1X",
">X>X<X1X1X1XdX1X1X<X<X1XwXaXdXaXaXaX0X:X|.} 2 h ,.4.q.q. .) M p B N s u $..X0XqX<X>X;X X%.u h ,.5.w.7.3.] m 9 % 7 '.,X0XqX1X>X1X",
"=X;X<X1XpXdXfXdXqX1X<X>XqXeXdXdXdXaXwXqX>X*.u # B  .3.+. .) M M Q a 6 $ R }.<X1X<X:X;X;X*.u q B ! ` [ ] B y q e t { =.}.;X1X>X>X",
"<X0X1XwXdXpXpXwXqX1X<X>X0XeXaXaXeX9X:X>X8XOX1.R A ' ) B B N M m m p 6 1 W }.1X1X<X>X>X=X$.1 8 P ] [ ] ) A B m M y 8 1 E  X0XqXqX",
"wXeXwXdXdXpXwXwXqX1X<X>X0XqXeX0X{.} Y $.t.xXVXZXbX4XJ.q.[ / M M m a : & { XX1X1X1X1X<X:X&.1 1.BXCXVXlXK.p.4.] B y : % U  XpXaXaX",
"aXdXdXdXdXwX0X1X1X0X<X>X<X:X|.:.| ( ( ] s.BXAXZXMXjXJ.q.>.) M , = = * % E XXqXwX0X>X.X;.Q s f.ZXKXAXMX4XK.e.3.A , * $ U  XiXaXaX",
"eXeXpXdXaXqX1X<X<X<X<X>X:X:.s h ] 7.K.kXxXkXL.0.>.A N m C M m q 7 < < 7 W oXiXqX>X{.U u ( 4.P.bXMXzXL.r.e.w.3.A q 5 3 T XXiXaXaX",
"qXqXeXdXeXwX<X>X>X<X>X>X9X'.2 5 h S ,.w.i.<.A q - o o ; > * 2 )._.+X@X+X#X&XiX1X0X[.7 & h (  .6.0.6.( S S S r - T _.+X#X&X1XqXqX",
"1XqXqXdXeX0X>X<X>X>X>X>X,X`.U X X X . O O O + X   X + . X + < _.$X$X$X$X%XsXaX1X0X{.U $ +   . + . . X . X X X   W @X$X%X&XiX1X1X"
};
