/* XPM */
static char *ed95efde66d44490902d03d8b1a10372DebN7VCiENTqHxoL[] = {
/* columns rows colors chars-per-pixel */
"64 64 240 2 ",
"   c #111E08",
".  c #14230C",
"X  c #18220C",
"o  c #162B0E",
"O  c #1A2B0D",
"+  c #15320E",
"@  c #18350F",
"#  c #172710",
"$  c #162C11",
"%  c #1B2D12",
"&  c #163412",
"*  c #1A3413",
"=  c #153B14",
"-  c #193B15",
";  c #1D3618",
":  c #1C3B19",
">  c #232E0F",
",  c #222E15",
"<  c #223513",
"1  c #233C14",
"2  c #2A3B17",
"3  c #223419",
"4  c #223B1A",
"5  c #2F3A24",
"6  c #154315",
"7  c #1B4315",
"8  c #144B16",
"9  c #1A4B16",
"0  c #164518",
"q  c #1C431A",
"w  c #154C19",
"e  c #1B4B1A",
"r  c #145216",
"t  c #1B5217",
"y  c #185C16",
"u  c #14541A",
"i  c #1C541C",
"p  c #135C1B",
"a  c #1B5B1C",
"s  c #244215",
"d  c #254518",
"f  c #2B441A",
"g  c #254C1C",
"h  c #2B4C1C",
"j  c #314215",
"k  c #37481B",
"l  c #324C1C",
"z  c #23541C",
"x  c #29531A",
"c  c #235C1C",
"v  c #2B5B1E",
"b  c #33531D",
"n  c #37581B",
"m  c #0F651A",
"M  c #0E6819",
"N  c #12641C",
"B  c #1C641D",
"V  c #156A1D",
"C  c #1B6B1D",
"Z  c #1C711F",
"A  c #23641E",
"S  c #29651E",
"D  c #236B1D",
"F  c #34681E",
"G  c #2B731E",
"H  c #1E4E20",
"J  c #1A5C20",
"K  c #2D4820",
"L  c #354925",
"P  c #3B4E22",
"I  c #295523",
"U  c #235C22",
"Y  c #2C5D23",
"T  c #355727",
"R  c #3C5322",
"E  c #355B23",
"W  c #3A5D23",
"Q  c #166721",
"!  c #1B6521",
"~  c #156C20",
"^  c #1B6D22",
"/  c #1D7323",
"(  c #1F7629",
")  c #236523",
"_  c #2B6526",
"`  c #236C22",
"'  c #2A6C24",
"]  c #346526",
"[  c #3C6324",
"{  c #3B6B24",
"}  c #3C6529",
"|  c #3D6C2C",
" . c #227524",
".. c #2A7324",
"X. c #257A25",
"o. c #2C7B25",
"O. c #29732A",
"+. c #257C2A",
"@. c #297E2B",
"#. c #387527",
"$. c #34762B",
"%. c #327B2C",
"&. c #3A7C2C",
"*. c #3E6830",
"=. c #3A7931",
"-. c #465B1E",
";. c #4F681B",
":. c #556E1D",
">. c #657D1E",
",. c #414F22",
"<. c #4A5D23",
"1. c #465A29",
"2. c #485932",
"3. c #476727",
"4. c #436D2A",
"5. c #566A27",
"6. c #44732B",
"7. c #46772A",
"8. c #5A7529",
"9. c #4C6935",
"0. c #546932",
"q. c #477732",
"w. c #4B7C34",
"e. c #577B33",
"r. c #637C23",
"t. c #667B28",
"y. c #647A2B",
"u. c #667935",
"i. c #2C8026",
"p. c #2C832B",
"a. c #338027",
"s. c #32852C",
"d. c #3B832D",
"f. c #358A2D",
"g. c #3B8B2D",
"h. c #3D902F",
"j. c #2C8331",
"k. c #338631",
"l. c #388631",
"z. c #348931",
"x. c #3B8E32",
"c. c #3D9132",
"v. c #65851E",
"b. c #42832D",
"n. c #49862D",
"m. c #54852C",
"M. c #46942E",
"N. c #458333",
"B. c #4B8434",
"V. c #438D33",
"C. c #4B8C34",
"Z. c #4B8839",
"A. c #518133",
"S. c #5A8736",
"D. c #538A34",
"F. c #538B39",
"G. c #449434",
"H. c #4B9435",
"J. c #459933",
"K. c #4B9B34",
"L. c #449639",
"P. c #4B9439",
"I. c #4B9B39",
"U. c #539334",
"Y. c #599534",
"T. c #529A36",
"R. c #5B9A35",
"E. c #54943A",
"W. c #5A9539",
"Q. c #539C3A",
"!. c #5C9C3B",
"~. c #678123",
"^. c #678623",
"/. c #6C842B",
"(. c #738E23",
"). c #738C2C",
"_. c #7E9D24",
"`. c #789428",
"'. c #6C8333",
"]. c #678538",
"[. c #738C36",
"{. c #629D3C",
"}. c #7A9637",
"|. c #53A336",
" X c #52A53A",
".X c #54A43B",
"XX c #5BA43C",
"oX c #59A83A",
"OX c #5BAB3D",
"+X c #64A63D",
"@X c #63AB3D",
"#X c #64B23E",
"$X c #6BB33E",
"%X c #6EBB3F",
"&X c #70BD3F",
"*X c #589C40",
"=X c #789541",
"-X c #5CAC41",
";X c #63AC41",
":X c #6BAC41",
">X c #64B242",
",X c #6BB442",
"<X c #67B841",
"1X c #6CBB41",
"2X c #809F1E",
"3X c #85A71E",
"4X c #8AAD1D",
"5X c #8EB31E",
"6X c #91B61E",
"7X c #94BA1F",
"8X c #809F24",
"9X c #819E2C",
"0X c #819B38",
"qX c #85A525",
"wX c #87A922",
"eX c #8AAC23",
"rX c #85A32C",
"tX c #88A72C",
"yX c #8CAC2B",
"uX c #8EB222",
"iX c #92B523",
"pX c #95BB22",
"aX c #99BE24",
"sX c #92B42B",
"dX c #96B92B",
"fX c #99BD29",
"gX c #87A534",
"hX c #8CAB33",
"jX c #91AE38",
"kX c #94B434",
"lX c #98B937",
"zX c #9BC025",
"xX c #9CC226",
"cX c #9EC329",
"vX c #9EC132",
"bX c #A1C62B",
"nX c #A3C92D",
"mX c #A4C733",
"MX c #809740",
"NX c #86B146",
/* pixels */
"5X5X6X7XzXxXnXnXnXnXzX7X7X7X7X7X7XzXbXnXxX7X7X7X7X7X7X7X7X7X6X4X4X6X7X6X6X6X6X7XaXbXbXfX7XaXbXbXbX7X7X6X4X4X4X5X6X7X6X4X4X5X6X7X",
"5X6X6X7XzXxXnXnXnXnXxX7X7X7X7X7X7XzXbXbXxX7X7X7X7X7X7X7X7X7X6X4X4X6X7X6X6X6X6X7X7XfXxXaX7XaXbXnX7X7X6X5X4X4X5X6X6X7X6X4X4X5X7X7X",
"6X6X6X7X7XzXxXcXbXnXxXzXzX7XxXxXxXxXbXxX7X6X5X6X7X7X7X7X6X6X4X4X4X4X6X6X6X6X7X7XaXaXfXaXbXaXfXfX7X6X6X6X6X6X6X7X7X7X6X6X4X6X7X7X",
"7X7X6X6X6X6XzXzXxXnXnXnXxXxX7XxXbXbXpX7X6X5X4X5X6X7X7X7X6X6X5X4X4X4X6X6XiX6XpX6XiX7XaXaXxXaX7X7X6X6X6X6X7X7X7X7X7X7X7X6X6X7X7X7X",
"7X6X6X6X6X6X7XzXzXcXbXnXxX7X7XbXnXxXpX6X4X4X4X5X6X6X6XpX5X5X5X4XeXeXtX_.8X8X8X8X9XsXiXaXfXfXpX6X6X6X6X6X7X7X7X7X7X7X7X7X6X6X7X7X",
"6X6X6X7X7X6X6X6XaXaXcXbXxX7X7XxXnXbXpX6X5X4XqXwXeX4XeXwXtXeXtX9XtX_.'.8.5.5.5.0.u.}.gXsXfXpXpXpX7X6X6X7X6X6X7X7X7X7X7X7X6X6X6X6X",
"6X6X6X7X7X6X6X6XpXpXpXcXaXiX7XzXnXxXpXuXeXqX`.).).'.'.'.u.'.u.u.u.0.2.1.9.9.0.9.2.0.u.MXhXsXsXiXpXiXiXiX6XiXiX7X7X7X7X7X7X6X6X6X",
"6X6X7X7X6X6X5X6X6XpXfXfXfXiXpXpXcXfXiXiXsX}.8.W R 4.9.0.9.2.2.5 5 5 P =.D.E.F.*Xw.*.L 2.u.=X}.0X0XtXyXsXpXpXpX7X7X7X7XaXxX7X6X6X",
"7X7X7X7X6X6X6X6XiXyXjXjXlXlXlXlXlXjXjXjXMX0.l 9 y { w.B.B.q.L > X * v &.G.M.J.H.C.&._ I T 2.2.9.8.e.].}.hXsXfXpX7XzXpXbXbXxX7X7X",
"7XxXpX7X6X6X6XiXtX[.'.].=XNXNX=X[.u.].u.0.L 7 r S b.K.I.P.C.7.b % * i ..o.o.i.f.f.p.O.Y H : 4 K E 7.A.].=X}.rXiX7X7XaXxXxXpXpX7X",
"bXbXxX7X7XpX6XtX'.0.3.e.{.+X,X*XS.e.9.R 2 ; = 8 D o.d.l.s.d.B.| h = r B V C Z / /  .O.! i e d g _ &.C.T.E.e.u.}.iXiXpXpXpXpX7X7X",
"nXbXxXpX4X2X(.m.5.4.S.E.R.XX+X+X{.+XW.| 4 O + 8 y A A D ) ' d.&.] z t r y N V V Q N J w 0 - : q c D o.V.E.F.w.e.}.hXiXuX6X7X7X7X",
"nXbXbX7X_.:.;.n { Z.Q.K.g.g.M.K.|.OX!.7.g & 1 z c S c z e i ) O.' Y e w u y B C ..` U g g s 1 7 9 a C o.V.P.N.q.e.}.rXuX7X7X6X7X",
"bXbXbXfX`.-.7 t #.H.V.o.X. .G i.s.M.J.b.Y x [ w.n.D.w.[ g q i c ) J e 9 t a ' &.V.Z.w.7.7.7.{ _ U i y D @.z.l.=.| 0./.tXiX6X6X6X",
"zXcXcXtXr.b 7 9 ) %. .^ V M M Z C o.&.b.b.B.W.;X;X-XXXA.} h q w J H e e v #.7.P.Q.Q.P.P.U.W.P.=._ U u N ^ O.X.` U K <.).wX6X6X5X",
"zXzXpX`.-.4 - 7 e i a u u y m V N C G d.T.XX;X;X-XoX-X!.w.[ h q 0 w e K } w.Z.B.N.d.%.%.l.G.V.=._ i e u p N C C a e K 5.8XeX5X5X",
"pXpXuX^.b ; * @ - = 6 6 8 r a ^ ` B D o.T.oXoX|.J.c.K.|.W.B.[ g - 0 q g E 6.| ] c A B D ....' ) a 9 6 8 r u m m p 8 q 3.).eXuX6X",
"pXpXeX~.l < % < 1 s s d z y S $.%.' B ..a.h.G.c.x.f.h.J.T.W.w.E q - - q I I x s - d z ) ' A z 9 0 6 = = 6 8 8 u u 8 q 1.}.yX6X6X",
"pXiX_.8.l < < j n [ [ F { 7.b.H.E.d...^ / @.p.z.j.z.z.z.G.T.E.| x q - : : 7 1 @ 1 l { b.b.#.x 7 - @ @ = = = 6 w 8 6 6 3.}.sXiX6X",
"pXwX~.l 1 * 2 [ Y.R.Y.U.T.XX@X@X-XI.k.^ ^ ( +.@.+.@.j.j.s.c.K.V.' e 0 = - s f b n 7.U.+XXXS.6.R d - @ = = = = = 6 = = 1.}.dXpXpX",
"7X8X>.2 O > f 7.;X>X|.K.K.oX@XOXoXP.@.^ Q ^ ^ ^ ~ ^ ^ ^  .i.h.l.O.J w = 7 x ;.D.W.!.;X#X;X;XW.A.3.s * @ = = = - & + 3 2.0XkXfXbX",
"aX3X:.2 O < 3.W.;XOXM.f.g.V.g.d.s.$.) i p p N m m m Q m V C  .X./ Q u i x F M.@X>X>X|.K.|.OX:X{.e.l * + = 7 q & o O 3 2.0XlXbXbX",
"zXtX5.2 O 1 6.!.Q.G.%.' S A c y i e 0 0 0 w u p m m N m y y u p N N B G #.n.!.OX|. XJ.M.|.oX$X@Xm.[ 1 O = 0 w 7 @ O , 2.MXlXnXnX",
"bXkX~.,.1 b B.P.s.` B t 9 = @ - & & & & ; & = 6 w u u u w 8 8 w u N D b.R.@XOX|.L.c.h.J.|.oXOXoXXXm.W 4 & w a S v h L 9.=XjXvXbX",
"nXmXhXy.<.q.P.l. .y w : & O @ 1 1 1 1 1 1 1 1 * & = = 6 6 = = 6 8 u D M.oX@X@XK.x.k.f.f.g.c.g.M.P.E.A.T d e ) #.b.B.w.w.].=XNXvX",
"nXmXkXu.4.B.x.X.N u 6 & O 1 n 6.7.6.6.6.4.4.3.h ; * & + - - = 6 6 9 D g.|.oXI.g.f.p.p.p.X.(  ...@.x.N.| I q U ' %.C.P.N.*.9.[.jX",
"mXlX0X8.[ ..@.B p 6 & * d [ D.{.+XR.R.Y.R.W.D.6.[ P d - - - = 6 8 u B o.g.l.f.p.@.@. ./ Z V V V ^ ..o.' H e 9 t A #.a.o.U W '.hX",
"vXgXy.n z ! ^ p 8 & * f 3.D.+X,X$X@X+XR.Q.T.U.U.Z.w.| x : = 6 w p p N C /  ./  . . .~ N M N M N N B ! ! J w 9 9 t c D ! a Y u.rX",
"hX/.n s 8 u p u = & d 4.D.!.;X;X+X.XI.G.V.G.V.J.T.W.F.| I q 0 w u p p m V N V V V N N m m N m p r r y p N a c x z U H u w I e.tX",
"9X5.d = 0 u u 0 * 4 } F.-XQ.I.J.J.G.x.f.s.p.p.o.d.V.F.w.} g = 0 8 u u p p m N N m m m p p p u w 8 0 w p C o.b.n.6.*.Y g - h 8.tX",
"`.3.1 @ 6 6 6 = ; K w.Q.L.l.@.i.i.s.p.i.X.( ~ C B S #.| Y e 0 = 6 6 8 r r p y m p p u w r w w 6 = = w a O.G..XOX!.F.q.T 2 K y.9X",
"}.<.1 + = = = & 3 K B.L.@.( ~ Z / X.+.( ^ Q p u r 9 g e q : = = = = = = 8 8 r r w 8 = = & = = * * - 0 U $.G.Q.I.*X*X*XA.4.R y.gX",
"`.-.3 @ @ = * * $ h =.f./ V V M V ~ C C J J 8 6 = & & + + + & * = = = = = 6 0 0 - * @ 1 1 1 ; % O @ = 9 U ' o.i.s.c.P.I.B.9.].gX",
"rX;.1 O + * - * * s A  .V N m N N N y u w 8 = + o o o + @ % * * + & - = - = & * @ j [ 6.7.3.} P 1 < 1 7 9 t y B / +.k.x.d.=.W.}.",
"rXt.,.O o + 1 @ - 9 y C N N p r r r w 8 6 - O X O 1 h n n F b f & * - = - - ; 1 l 6.Y.XX|.Y.C.7.3.W n [ F [ ) B V ~  .o.O.O.w.}.",
"sX9X-.> . o @ @ 9 t a N p H 0 6 6 6 6 = - % > 2 l F m.Y.Y.W.D.4.E K d * @ ; d I 7.Y.@X#X|.K.K.U.R.R.{.R.W.B.=.` V N ~ ~ ^ ! ] S.",
"iX9X5.> . + 6 t c G D B i q = * & * & & % 3 j F m.R.@X$X1X1X<X-XD.q.T 1 * s v #.C..XOXOX Xc.L.|.@X$X<X>XOXoXP.%.` N N N m J U e.",
"uX9X5.> O + t F n.C.&.U q - ; 1 1 ; O O @ d { Y.@X$X&X&X&X1X1X1X:X{.e.R d s Y $.l.c.J.G.c.x.c.L.oX#X<X-X X-XQ.G.&.` J y J p E e.",
"iX9X5.> + 9 F M.@XXXN.Y 1 1 l W n b 1 > s F Y.@X$X&X&X&X&X&X1X1X<X,X:Xw.W h z ) /  .p.p.k.z.k.c.L.oXoX Xc.*X*X-XH.#.U u u i 4.[.",
"eX`.;.2 7 F U.@X#XOXP.#.b F n.R.R.B.3.n ;.Y.#X%X%X&X&X&X1X<X<X-XOX#X,X*XA.} Y ! ~ M V ( ( p.p.p.g.c.I.c.z.c.c.-XXXB._ e w z e._.",
"qXr.n s n n.oXOXoX|.|.T.Y.Y.-X>X#X@X!.R.{.$X#X<X<X%X&X&X%X<X-Xc.K. X X-X*XF.N.$.! y N ~ Q ~ ~ / X.p.g.g.f.x.G..XXXD.{ g 6 h m.eX",
"_.;.s s F C.I.G.J.K.OX%X<XOXoX.X X;X;X,X,X>XoX|.oX#X%X&X<X-XI.c.g.c.J.I.-X*XP.=.z u p N m m M V Z X.p.p.p.j.l.G.oX!.n.v s n r.eX",
"_.;.1 s c &.f.g.J. X-X<X<X!.x.j.z.x.P.K.I.L.x.g.|.#X<X1X1X-XI.c.f.f.f.f.x.c.=.*.0 6 u m m m m m C  .@.p.p.p.s.J.|.-XW.| E 5.`.iX",
"_.;.s = t A %.J.oX-XoXoX Xl.( ^ ! `  . .X.X.p.g.J. X-X>X-X Xc.z.j.j.k.f.k.j.=.I : = w r u p u m V ~ ( +.( j.k.L.-X>X|.&.[ 8.8X6X",
"3X;.s = 9 D b.OX-XG.c.x.j.( Q u r u p m V Z i.f.h.J.J.c.c.z.z.j.j.j.j.j.p.j.O.U 7 = 6 6 8 8 u p N V V ~ Z / @.L.|. XG.#.E 3.(.5X",
"_.;.s 7 r D c.oX Xs.+. ./ Q u 8 8 8 u m V C +.s.f.f.z.f.j.p.( ( ( ( ( p.p.p.( J 8 = = = 6 8 u u N M N N N V / i.f.f.s.o.) [ v.5X",
"_.;.s = 8 D f.c.l./ ~ Q Q p r 8 6 8 p m V V / i.p.p.p.i.( / ~ ~ ~ ~ ~ / ( ( ~ J i = = = 6 u p m m m M N N N V C ( X.+.X.B F ^.wX",
"_.;.s = w N / +./ ~ N N p w 8 = = 8 u m M V ~ / p.j.p.i.( V Q m M M ~ M M ~ m J u q = = 8 8 p m m N M M N V N N V Z / / B G v.wX",
"3X;.1 & 8 y p m N N p u u 0 = = 6 6 p m m m m Q ( +.j.( ( ~ m m m m m m m m N Q u 0 = 0 6 w p p y m m M M N p p J Q ~ Q p S ^.wX",
"qX;.s @ 6 r u p p p r 8 0 = = = = 6 r m m m m m ~ ~ ( / V M M m m m m m m m m p u 0 = = = 6 w u p m m m N N p p p m m p u S ^.eX",
"tX:.j + = 6 8 r 8 w 8 6 = : = = = 6 8 p m m m m m ~ ~ m m m m m m m m m m m m p u 0 = = = = 0 w u p p m N p p J p N m p t x m.4X",
"6X(.l * = = = = 6 w 6 = = & & - = = 6 u p m m m m m m m m m m m m m m m m m p u 0 0 = & & = = 0 w r u u u r u u u p u u 6 l v.4X",
"mXhX5.3 $ - = = = = = = & : $ & - - = 8 u p p m m m m m m m m m m m m m m m p u 0 = & $ $ & = = 6 6 8 8 6 6 9 w u r 8 0 7 n v.3X",
"mXkXy.j O * - = = & = = & $ . $ * = = 0 w u p m m m m m m m m m m m m m N m u w 0 & & $ $ & = = = = + 6 = 7 : 7 6 6 6 = 7 -.v.4X",
"fXdX`.<.2 * * = = = = = * % % % & = = 6 6 0 u p m m m m m m m m m m m N N u w 6 = & $ $ $ & = = = = = = = = * $ $ & = - l 5._.5X",
"6XpXhXy.j % * = = = = & - : % # $ - = = = = 6 r p p m m m m m m m N p u u w 0 = & & $ . $ & = = = = = = @ @ * o o & = : -.(.4X6X",
"4XuXeX`.<.3 * < = - = & = - # # % % ; : = = 6 8 r u p p p p p p p u w w 6 = 0 & * # . . o & = = = @ = = - % % X # $ 3 ,.t.8XiX6X",
"4X4XiX9Xt.,.3 < : - = * & : * # # % ; - - = = = 0 w w w w r 8 w w 0 6 = = & = & % #   . $ & = = = = - - ; 3 3 3 2 K 5./.rXeX6X5X",
"5XiXsXpXtXt.,.5 4 3 ; * ; ; : , 3 3 3 < * & = = 6 = = 0 6 6 6 = = = = = = & ; ; , X   X & & = : = & * : 5 L 1.5.5.y.`.tXiXpXpXpX",
"fXaXcXcXfXtX).5.0.1.K 3 # , 3 L 1.,.L 3 * * - - = = = = : = * : = = & = ; ; 5 L L , # > $ & & $ $ * ; 2 1.].`.(.8XtXuXpXpXaXcXxX",
"cXcXvXnXvXdXwX8X8X).5.k 2 k -.r.).).5.-.2 1 3 4 : : 4 3 4 4 4 4 4 4 3 2 5 L 3.u.t.-.2 k j j j j j 2 k -./.rXwX4X6X6X7X7XpXxXbXnX",
"zXaXxXbXcXpX6XuX4XtX8X>.>.>.(.8XuXyX9Xu.y.<.P P P R P R ,.n P R L P P 1.9.].}.rXtX(.>.>.v.t.>.>.r.>.v.(.qXuX4X4X4X6X7X7XpXxXxXxX",
"7XaXxXcXzXpX5X5X5XuXeX3XwX4X5XiXpXpXuXtX9X).^.r.>.>.r.r.r.^.^.~./.t.t.).gXkXdXiXiXiXeXiXfXsXiXeXeXeXuXiX7X5X4X4X4X6X7X7X7X7X7X7X",
"7XpXzXcXzXpX5X5X5X5X5X5X6X7X7X7X7X6X6XiXiXuX4XeX4X3X_._.3XeX4XeXeXyXsXdXvXnXbX7X7X7X7XxXnXbXxX7X7XpX7X7X7X5X4X4X4X6X7X7X7X7X7X7X"
};
